<svg xmlns="http://www.w3.org/2000/svg" width="34" height="34" viewBox="0 0 34 34"><defs><style>.a{fill:rgba(241,241,241,0.3);}.b{fill:#e2e2e2;}</style></defs><g transform="translate(-331 -54)"><rect class="a" width="34" height="34" rx="7" transform="translate(331 54)"/><g transform="translate(341.76 63.626)"><path class="b" d="M90.612,7.16a3.464,3.464,0,0,0,2.531-1.049A3.464,3.464,0,0,0,94.192,3.58a3.465,3.465,0,0,0-1.049-2.531,3.579,3.579,0,0,0-5.063,0A3.464,3.464,0,0,0,87.032,3.58a3.464,3.464,0,0,0,1.049,2.531A3.465,3.465,0,0,0,90.612,7.16Zm0,0" transform="translate(-84.505 0)"/><path class="b" d="M12.371,251.566a8.843,8.843,0,0,0-.12-.939,7.4,7.4,0,0,0-.231-.944,4.664,4.664,0,0,0-.388-.881,3.323,3.323,0,0,0-.585-.763,2.581,2.581,0,0,0-.841-.528,2.906,2.906,0,0,0-1.073-.194,1.09,1.09,0,0,0-.582.247c-.174.114-.378.245-.606.391a3.473,3.473,0,0,1-.784.346,3.045,3.045,0,0,1-1.919,0,3.465,3.465,0,0,1-.784-.345c-.226-.144-.43-.276-.607-.391a1.088,1.088,0,0,0-.582-.247,2.9,2.9,0,0,0-1.073.195,2.579,2.579,0,0,0-.841.528,3.325,3.325,0,0,0-.585.763,4.674,4.674,0,0,0-.388.881,7.419,7.419,0,0,0-.231.944,8.812,8.812,0,0,0-.12.94c-.02.284-.03.58-.03.878a2.468,2.468,0,0,0,.733,1.867A2.639,2.639,0,0,0,2.622,255H9.779a2.638,2.638,0,0,0,1.889-.689,2.467,2.467,0,0,0,.733-1.867c0-.3-.01-.595-.03-.878Zm0,0" transform="translate(0 -240.136)"/></g></g></svg>