<svg width="48" height="48" viewBox="0 0 48 48" fill="none" xmlns="http://www.w3.org/2000/svg">
    <circle cx="24.0001" cy="23.9997" r="20.5714" fill="#DA3027"/>
    <circle cx="24" cy="24" r="23.4286" stroke="#DA3027" stroke-width="1.14286"/>
    <g clip-path="url(#clip0_104_696)">
    <path d="M30.6325 24.7718L21.7071 30.7221C21.6436 30.7643 21.57 30.7885 21.4939 30.7921C21.4178 30.7958 21.3422 30.7787 21.275 30.7427C21.2079 30.7068 21.1518 30.6533 21.1126 30.588C21.0735 30.5226 21.0528 30.4479 21.0527 30.3718V18.4711C21.0528 18.395 21.0735 18.3202 21.1126 18.2549C21.1518 18.1896 21.2079 18.1361 21.275 18.1001C21.3422 18.0642 21.4178 18.0471 21.4939 18.0508C21.57 18.0544 21.6436 18.0786 21.7071 18.1208L30.6325 24.0711C30.6902 24.1096 30.7375 24.1617 30.7702 24.2228C30.8029 24.2839 30.82 24.3521 30.82 24.4214C30.82 24.4908 30.8029 24.559 30.7702 24.6201C30.7375 24.6812 30.6902 24.7333 30.6325 24.7718V24.7718Z" fill="white"/>
    </g>
    <defs>
    <clipPath id="clip0_104_696">
    <rect width="20.2105" height="20.2105" fill="white" transform="translate(14.3158 14.3159)"/>
    </clipPath>
    </defs>
    </svg>
    