<?xml version="1.0" encoding="UTF-8" standalone="no"?>
<svg
   xmlns:dc="http://purl.org/dc/elements/1.1/"
   xmlns:cc="http://creativecommons.org/ns#"
   xmlns:rdf="http://www.w3.org/1999/02/22-rdf-syntax-ns#"
   xmlns:svg="http://www.w3.org/2000/svg"
   xmlns="http://www.w3.org/2000/svg"
   xmlns:sodipodi="http://sodipodi.sourceforge.net/DTD/sodipodi-0.dtd"
   xmlns:inkscape="http://www.inkscape.org/namespaces/inkscape"
   width="100"
   height="100"
   viewBox="0 0 102 102"
   fill="none"
   version="1.1"
   id="svg863"
   sodipodi:docname="AddImage.svg"
   inkscape:version="1.0.2 (e86c8708, 2021-01-15)">
  <metadata
     id="metadata867">
    <rdf:RDF>
      <cc:Work
         rdf:about="">
        <dc:format>image/svg+xml</dc:format>
        <dc:type
           rdf:resource="http://purl.org/dc/dcmitype/StillImage" />
      </cc:Work>
    </rdf:RDF>
  </metadata>
  <sodipodi:namedview
     pagecolor="#ffffff"
     bordercolor="#666666"
     borderopacity="1"
     objecttolerance="10"
     gridtolerance="10"
     guidetolerance="10"
     inkscape:pageopacity="0"
     inkscape:pageshadow="2"
     inkscape:window-width="1047"
     inkscape:window-height="631"
     id="namedview865"
     showgrid="false"
     inkscape:zoom="5.94"
     inkscape:cx="50"
     inkscape:cy="50"
     inkscape:window-x="0"
     inkscape:window-y="25"
     inkscape:window-maximized="0"
     inkscape:current-layer="svg863" />
  <g
     filter="url(#filter0_d)"
     id="g835">
    <path
       d="M91 0H11C7.13401 0 4 3.13401 4 7V87C4 90.866 7.13401 94 11 94H91C94.866 94 98 90.866 98 87V7C98 3.13401 94.866 0 91 0Z"
       fill="#FCFCFC"
       id="path833" />
  </g>
  <path
     d="M 66.409,17 H 36.591 c -1.4828,0 -2.9049,0.5891 -3.9534,1.6376 C 31.5891,19.6861 31,21.1082 31,22.591 v 29.818 c 0,1.4828 0.5891,2.9049 1.6376,3.9534 C 33.6861,57.410898 35.1082,58 36.591,58 h 29.818 c 1.4828,0 2.9049,-0.589102 3.9534,-1.6376 C 71.4109,55.3139 72,53.8918 72,52.409 V 22.591 C 72,21.1082 71.4109,19.6861 70.3624,18.6376 69.3139,17.5891 67.8918,17 66.409,17 Z m 1.864,35.409 c 1e-4,0.2448 -0.048,0.4873 -0.1416,0.7135 -0.0936,0.2262 -0.2309,0.4317 -0.4041,0.6048 -0.1731,0.1732 -0.3786,0.3105 -0.6048,0.4041 -0.2262,0.0936 -0.4687,0.1417 -0.7135,0.1416 H 42.954 l 16,-16 9.318,9.318 z m 0,-10.09 L 58.955,33 37.683,54.273 H 36.591 C 36.3462,54.2731 36.1037,54.225 35.8775,54.1314 35.6513,54.0378 35.4458,53.9005 35.2727,53.7273 35.0995,53.5542 34.9622,53.3487 34.8686,53.1225 34.775,52.8963 34.7269,52.6538 34.727,52.409 V 22.591 c -10e-5,-0.2448 0.048,-0.4873 0.1416,-0.7135 0.0936,-0.2262 0.2309,-0.4317 0.4041,-0.6048 0.1731,-0.1732 0.3786,-0.3105 0.6048,-0.4041 0.2262,-0.0936 0.4687,-0.1417 0.7135,-0.1416 h 29.818 c 0.2448,-10e-5 0.4873,0.048 0.7135,0.1416 0.2262,0.0936 0.4317,0.2309 0.6048,0.4041 0.1732,0.1731 0.3105,0.3786 0.4041,0.6048 0.0936,0.2262 0.1417,0.4687 0.1416,0.7135 z M 44.045,24.455 c -1.1058,0 -2.1868,0.3279 -3.1062,0.9423 -0.9194,0.6143 -1.636,1.4875 -2.0592,2.5091 -0.4232,1.0216 -0.5339,2.1458 -0.3182,3.2303 0.2158,1.0846 0.7483,2.0808 1.5302,2.8627 0.7819,0.7819 1.7781,1.3144 2.8627,1.5302 1.0845,0.2157 2.2087,0.105 3.2303,-0.3182 1.0216,-0.4232 1.8948,-1.1398 2.5091,-2.0592 0.6144,-0.9194 0.9423,-2.0004 0.9423,-3.1062 0,-1.4828 -0.5891,-2.9049 -1.6376,-3.9534 C 46.9499,25.044 45.5278,24.455 44.045,24.455 Z m 0,7.455 c -0.3687,0 -0.7291,-0.1093 -1.0356,-0.3141 -0.3065,-0.2049 -0.5454,-0.496 -0.6865,-0.8366 -0.1411,-0.3406 -0.178,-0.7154 -0.1061,-1.0769 0.0719,-0.3616 0.2495,-0.6938 0.5102,-0.9544 0.2606,-0.2607 0.5928,-0.4383 0.9544,-0.5102 0.3615,-0.0719 0.7363,-0.035 1.0769,0.1061 0.3406,0.1411 0.6317,0.38 0.8366,0.6865 0.2048,0.3066 0.3141,0.6669 0.3141,1.0356 -3e-4,0.4942 -0.1968,0.968 -0.5463,1.3174 -0.3495,0.3494 -0.8235,0.5456 -1.3177,0.5456 z"
     fill="#00BB57"
     id="path837"
     style="fill:#000d62;stroke-width:1;fill-opacity:1" />
  <g
     clip-path="url(#clip0)"
     id="g841"
     style="fill:#000d62;fill-opacity:1">
    <path
       d="M27.437 79L23.94 70.329H22.601L19.117 79H20.352L21.119 77.076H25.435L26.202 79H27.437ZM25.11 76.114H21.431L23.277 71.447L25.11 76.114ZM34.0566 79V70.329H33.0816V73.67C32.5746 72.981 31.8076 72.565 30.9626 72.565C29.3116 72.565 28.1676 73.865 28.1676 75.867C28.1676 77.908 29.3246 79.156 30.9626 79.156C31.8466 79.156 32.6136 78.701 33.0816 78.064V79H34.0566ZM31.1966 78.285C29.9356 78.285 29.1816 77.258 29.1816 75.867C29.1816 74.476 29.9356 73.436 31.1966 73.436C31.9766 73.436 32.7306 73.904 33.0816 74.45V77.297C32.7306 77.843 31.9766 78.285 31.1966 78.285ZM41.5342 79V70.329H40.5592V73.67C40.0522 72.981 39.2852 72.565 38.4402 72.565C36.7892 72.565 35.6452 73.865 35.6452 75.867C35.6452 77.908 36.8022 79.156 38.4402 79.156C39.3242 79.156 40.0912 78.701 40.5592 78.064V79H41.5342ZM38.6742 78.285C37.4132 78.285 36.6592 77.258 36.6592 75.867C36.6592 74.476 37.4132 73.436 38.6742 73.436C39.4542 73.436 40.2082 73.904 40.5592 74.45V77.297C40.2082 77.843 39.4542 78.285 38.6742 78.285ZM47.9563 79V70.329H46.8773V79H47.9563ZM58.5026 79V74.463C58.5026 73.202 57.8916 72.565 56.7476 72.565C55.8376 72.565 54.9926 73.163 54.6416 73.735C54.4596 73.085 53.9136 72.565 52.9516 72.565C52.0286 72.565 51.1836 73.228 50.9236 73.631V72.721H49.9486V79H50.9236V74.411C51.2616 73.904 51.9376 73.436 52.5746 73.436C53.3936 73.436 53.7316 73.943 53.7316 74.736V79H54.7066V74.398C55.0316 73.904 55.7206 73.436 56.3706 73.436C57.1766 73.436 57.5276 73.943 57.5276 74.736V79H58.5026ZM65.3487 79V74.684C65.3487 73.163 64.2437 72.565 62.9177 72.565C61.8907 72.565 61.0847 72.903 60.4087 73.605L60.8637 74.281C61.4227 73.683 62.0337 73.41 62.7877 73.41C63.6977 73.41 64.3737 73.891 64.3737 74.736V75.867C63.8667 75.282 63.1517 75.009 62.2937 75.009C61.2277 75.009 60.0967 75.672 60.0967 77.076C60.0967 78.441 61.2277 79.156 62.2937 79.156C63.1387 79.156 63.8537 78.857 64.3737 78.285V79H65.3487ZM62.6447 78.454C61.7347 78.454 61.0977 77.882 61.0977 77.089C61.0977 76.283 61.7347 75.711 62.6447 75.711C63.3337 75.711 63.9967 75.971 64.3737 76.491V77.674C63.9967 78.194 63.3337 78.454 62.6447 78.454ZM69.8251 81.548C71.3591 81.548 72.8151 80.898 72.8151 78.818V72.721H71.8401V73.67C71.3331 72.981 70.5791 72.565 69.7341 72.565C68.0831 72.565 66.9391 73.813 66.9391 75.828C66.9391 77.856 68.0961 79.078 69.7341 79.078C70.6181 79.078 71.3851 78.597 71.8401 77.96V78.857C71.8401 80.235 70.8651 80.742 69.8251 80.742C68.9281 80.742 68.3041 80.508 67.7841 79.884L67.2901 80.612C68.0311 81.34 68.7591 81.548 69.8251 81.548ZM69.9681 78.22C68.7071 78.22 67.9531 77.206 67.9531 75.828C67.9531 74.437 68.7071 73.436 69.9681 73.436C70.7481 73.436 71.5021 73.904 71.8401 74.45V77.193C71.5021 77.739 70.7481 78.22 69.9681 78.22ZM77.602 79.156C78.629 79.156 79.474 78.818 80.098 78.194L79.63 77.557C79.136 78.064 78.408 78.35 77.693 78.35C76.341 78.35 75.509 77.362 75.431 76.179H80.514V75.932C80.514 74.047 79.396 72.565 77.498 72.565C75.704 72.565 74.404 74.034 74.404 75.854C74.404 77.817 75.743 79.156 77.602 79.156ZM79.552 75.464H75.431C75.483 74.502 76.146 73.371 77.485 73.371C78.915 73.371 79.539 74.528 79.552 75.464Z"
       fill="#00BB57"
       id="path839"
       style="fill:#000d62;fill-opacity:1" />
  </g>
  <defs
     id="defs861">
    <filter
       id="filter0_d"
       x="0"
       y="0"
       width="102"
       height="102"
       filterUnits="userSpaceOnUse"
       color-interpolation-filters="sRGB">
      <feFlood
         flood-opacity="0"
         result="BackgroundImageFix"
         id="feFlood843" />
      <feColorMatrix
         in="SourceAlpha"
         type="matrix"
         values="0 0 0 0 0 0 0 0 0 0 0 0 0 0 0 0 0 0 127 0"
         id="feColorMatrix845" />
      <feOffset
         dy="4"
         id="feOffset847" />
      <feGaussianBlur
         stdDeviation="2"
         id="feGaussianBlur849" />
      <feColorMatrix
         type="matrix"
         values="0 0 0 0 0 0 0 0 0 0 0 0 0 0 0 0 0 0 0.06 0"
         id="feColorMatrix851" />
      <feBlend
         mode="normal"
         in2="BackgroundImageFix"
         result="effect1_dropShadow"
         id="feBlend853" />
      <feBlend
         mode="normal"
         in="SourceGraphic"
         in2="effect1_dropShadow"
         result="shape"
         id="feBlend855" />
    </filter>
    <clipPath
       id="clip0">
      <rect
         width="64"
         height="16"
         fill="white"
         transform="translate(19 68)"
         id="rect858" />
    </clipPath>
  </defs>
</svg>
