<svg width="35" height="34" viewBox="0 0 35 34" fill="none" xmlns="http://www.w3.org/2000/svg">
    <path d="M27.5391 0H7.53906C3.67307 0 0.539062 3.13401 0.539062 7V27C0.539062 30.866 3.67307 34 7.53906 34H27.5391C31.4051 34 34.5391 30.866 34.5391 27V7C34.5391 3.13401 31.4051 0 27.5391 0Z" fill="#DEDEDE" />
    <path d="M17.406 16.786C17.8771 16.7924 18.3445 16.7027 18.7796 16.5224C19.2148 16.342 19.6086 16.0748 19.937 15.737C20.2748 15.4086 20.542 15.0148 20.7224 14.5796C20.9027 14.1444 20.9925 13.677 20.986 13.206C20.9924 12.735 20.9027 12.2676 20.7223 11.8324C20.5419 11.3972 20.2747 11.0034 19.937 10.675C19.6047 10.3424 19.21 10.0786 18.7756 9.89861C18.3413 9.71861 17.8757 9.62597 17.4055 9.62597C16.9353 9.62597 16.4698 9.71861 16.0354 9.89861C15.601 10.0786 15.2064 10.3424 14.874 10.675C14.5364 11.0035 14.2694 11.3973 14.0892 11.8325C13.909 12.2677 13.8195 12.735 13.826 13.206C13.8196 13.677 13.9093 14.1444 14.0897 14.5796C14.27 15.0148 14.5373 15.4086 14.875 15.737C15.2034 16.0747 15.5973 16.3419 16.0324 16.5223C16.4676 16.7026 16.935 16.7924 17.406 16.786Z" fill="black" />
    <path d="M23.67 21.056C23.6468 20.7411 23.6068 20.4276 23.55 20.117C23.4938 19.7976 23.4166 19.4823 23.319 19.173C23.2204 18.8667 23.0904 18.5715 22.931 18.292C22.7741 18.0107 22.577 17.7536 22.346 17.529C22.1025 17.3002 21.8169 17.1209 21.505 17.001C21.1628 16.8692 20.7987 16.8034 20.432 16.807C20.2179 16.83 20.0154 16.916 19.85 17.054C19.676 17.168 19.472 17.299 19.244 17.445C18.998 17.5923 18.7346 17.7085 18.46 17.791C17.8371 17.9978 17.164 17.9978 16.541 17.791C16.2664 17.7089 16.0031 17.593 15.757 17.446C15.531 17.302 15.327 17.17 15.15 17.055C14.9848 16.9169 14.7822 16.8309 14.568 16.808C14.2013 16.8046 13.8371 16.8707 13.495 17.003C13.1831 17.1229 12.8975 17.3022 12.654 17.531C12.4231 17.7557 12.226 18.0127 12.069 18.294C11.9097 18.5735 11.7797 18.8688 11.681 19.175C11.5835 19.4843 11.5063 19.7996 11.45 20.119C11.3932 20.43 11.3531 20.7437 11.33 21.059C11.31 21.343 11.3 21.639 11.3 21.937C11.2847 22.2822 11.3421 22.6267 11.4683 22.9483C11.5946 23.2699 11.787 23.5614 12.033 23.804C12.5473 24.2726 13.2259 24.5192 13.921 24.49H21.078C21.774 24.5187 22.453 24.271 22.967 23.801C23.2131 23.5585 23.4056 23.267 23.5318 22.9454C23.6581 22.6237 23.7154 22.2792 23.7 21.934C23.7 21.634 23.69 21.339 23.67 21.056Z" fill="black" />
</svg>
    