<svg xmlns="http://www.w3.org/2000/svg" width="38" height="38" viewBox="0 0 38 38"><defs><style>.a{fill:#424242;}.b{fill:#1f212a;}.c{fill:#fff;}</style></defs><g transform="translate(0 -1020.36)"><circle class="a" cx="19" cy="19" r="19" transform="translate(0 1020.36)"/><path class="b" d="M20.587,36.025q.913-.159,1.807-.406.915-.254,1.8-.6t1.735-.775q.847-.432,1.647-.946t1.545-1.1q.744-.59,1.426-1.252a19,19,0,0,0,1.3-1.392q.611-.726,1.148-1.51a19,19,0,0,0,.993-1.621q.393-.732.721-1.5L19.829,10.046A3.559,3.559,0,1,0,14.8,15.079l2.245,2.245C12.619,17.447,9,20.523,9,24.438Z" transform="translate(1.688 1022.05)"/><path class="c" d="M9.313,2a3.563,3.563,0,1,0,3.563,3.563A3.57,3.57,0,0,0,9.313,2Zm0,1.018A2.545,2.545,0,1,1,6.768,5.563,2.536,2.536,0,0,1,9.313,3.018Zm0,7.294C4.767,10.313,1,13.443,1,17.438H2.188c0-3.242,3.118-5.937,7.125-5.937s7.125,2.7,7.125,5.938h1.188C17.625,13.443,13.858,10.313,9.313,10.313Z" transform="translate(9.688 1029.05)"/></g></svg>