<svg xmlns="http://www.w3.org/2000/svg" width="17.126" height="17.849" viewBox="0 0 17.126 17.849"><defs><style>.a{opacity:0.968;}.b{fill:#fff;}</style></defs><g class="a" transform="translate(-10.359 0.002)"><g transform="translate(10.359 -0.002)"><g transform="translate(0 0)"><path class="b" d="M26.66,9.154a.523.523,0,0,1,0-.462l.666-1.362a1.549,1.549,0,0,0-.669-2.058l-1.339-.71a.523.523,0,0,1-.272-.374l-.262-1.493a1.55,1.55,0,0,0-1.75-1.272l-1.5.212a.523.523,0,0,1-.44-.143L20,.438a1.549,1.549,0,0,0-2.163,0L16.751,1.492a.523.523,0,0,1-.44.143l-1.5-.212a1.549,1.549,0,0,0-1.75,1.272L12.8,4.187a.523.523,0,0,1-.272.374l-1.339.71a1.549,1.549,0,0,0-.669,2.058l.666,1.362a.523.523,0,0,1,0,.462l-.666,1.362a1.549,1.549,0,0,0,.669,2.058l1.339.71a.523.523,0,0,1,.272.374l.262,1.493a1.548,1.548,0,0,0,1.527,1.287,1.592,1.592,0,0,0,.223-.016l1.5-.212a.523.523,0,0,1,.44.143l1.089,1.054a1.549,1.549,0,0,0,2.163,0l1.089-1.054a.524.524,0,0,1,.44-.143l1.5.212a1.549,1.549,0,0,0,1.75-1.272l.262-1.493a.523.523,0,0,1,.272-.374l1.339-.71a1.549,1.549,0,0,0,.669-2.058Zm-.485,2.51-1.339.71a1.546,1.546,0,0,0-.8,1.106l-.262,1.493a.524.524,0,0,1-.592.43l-1.5-.212a1.546,1.546,0,0,0-1.3.422l-1.089,1.054a.524.524,0,0,1-.732,0l-1.089-1.054a1.544,1.544,0,0,0-1.078-.438,1.58,1.58,0,0,0-.222.016l-1.5.212a.524.524,0,0,1-.592-.43l-.262-1.493a1.546,1.546,0,0,0-.8-1.105l-1.339-.71a.524.524,0,0,1-.226-.7l.666-1.362a1.546,1.546,0,0,0,0-1.366l-.666-1.362a.524.524,0,0,1,.226-.7l1.339-.71a1.546,1.546,0,0,0,.8-1.106l.262-1.493a.524.524,0,0,1,.592-.43l1.5.212a1.546,1.546,0,0,0,1.3-.422l1.089-1.054a.524.524,0,0,1,.732,0l1.089,1.054a1.546,1.546,0,0,0,1.3.422l1.5-.212a.524.524,0,0,1,.592.43l.262,1.493a1.546,1.546,0,0,0,.8,1.105l1.339.71a.524.524,0,0,1,.226.7l-.666,1.362a1.546,1.546,0,0,0,0,1.366l.666,1.362A.524.524,0,0,1,26.174,11.664Z" transform="translate(-10.359 0.002)"/></g></g><g transform="translate(15.01 5.011)"><g transform="translate(0)"><path class="b" d="M151.464,143.942a.515.515,0,0,0-.728,0l-6.794,6.794a.515.515,0,1,0,.728.728l6.794-6.794A.515.515,0,0,0,151.464,143.942Z" transform="translate(-143.792 -143.792)"/></g></g><g transform="translate(14.976 4.29)"><path class="b" d="M144.689,123.116A1.887,1.887,0,1,0,146.577,125,1.889,1.889,0,0,0,144.689,123.116Zm0,2.745a.858.858,0,1,1,.858-.858A.859.859,0,0,1,144.689,125.861Z" transform="translate(-142.802 -123.116)"/></g><g transform="translate(19.094 9.78)"><g transform="translate(0)"><path class="b" d="M262.809,280.61A1.887,1.887,0,1,0,264.7,282.5,1.889,1.889,0,0,0,262.809,280.61Zm0,2.745a.858.858,0,1,1,.858-.858A.859.859,0,0,1,262.809,283.355Z" transform="translate(-260.922 -280.61)"/></g></g></g></svg>