<svg id="instagram_1_" data-name="instagram (1)" xmlns="http://www.w3.org/2000/svg" width="14.404" height="14.404" viewBox="0 0 14.404 14.404">
  <g id="Group_12009" data-name="Group 12009" transform="translate(0)">
    <g id="Group_12008" data-name="Group 12008">
      <path id="Path_4813" data-name="Path 4813" d="M10.808,0h-7.2A3.612,3.612,0,0,0,0,3.6v7.2a3.612,3.612,0,0,0,3.6,3.6h7.2a3.612,3.612,0,0,0,3.6-3.6V3.6A3.612,3.612,0,0,0,10.808,0Zm2.4,10.8a2.4,2.4,0,0,1-2.4,2.4h-7.2a2.4,2.4,0,0,1-2.4-2.4V3.6a2.4,2.4,0,0,1,2.4-2.4h7.2a2.4,2.4,0,0,1,2.4,2.4v7.2Z" transform="translate(-0.005 0)" fill="#fff"/>
    </g>
  </g>
  <g id="Group_12011" data-name="Group 12011" transform="translate(10.203 2.401)">
    <g id="Group_12010" data-name="Group 12010">
      <ellipse id="Ellipse_356" data-name="Ellipse 356" cx="0.9" cy="0.9" rx="0.9" ry="0.9" fill="#fff"/>
    </g>
  </g>
  <g id="Group_12013" data-name="Group 12013" transform="translate(3.601 3.601)">
    <g id="Group_12012" data-name="Group 12012">
      <path id="Path_4814" data-name="Path 4814" d="M106.006,102.4a3.6,3.6,0,1,0,3.6,3.6A3.6,3.6,0,0,0,106.006,102.4Zm0,6a2.4,2.4,0,1,1,2.4-2.4A2.4,2.4,0,0,1,106.006,108.4Z" transform="translate(-102.405 -102.4)" fill="#fff"/>
    </g>
  </g>
</svg>
