<svg
   xmlns:dc="http://purl.org/dc/elements/1.1/"
   xmlns:cc="http://creativecommons.org/ns#"
   xmlns:rdf="http://www.w3.org/1999/02/22-rdf-syntax-ns#"
   xmlns:svg="http://www.w3.org/2000/svg"
   xmlns="http://www.w3.org/2000/svg"
   viewBox="0 0 322.66666 190.66667"
   height="190.66667"
   width="322.66666"
   xml:space="preserve"
   id="svg2"
   version="1.1"><metadata
     id="metadata8"><rdf:RDF><cc:Work
         rdf:about=""><dc:format>image/svg+xml</dc:format><dc:type
           rdf:resource="http://purl.org/dc/dcmitype/StillImage" /></cc:Work></rdf:RDF></metadata><defs
     id="defs6"><clipPath
       id="clipPath20"
       clipPathUnits="userSpaceOnUse"><path
         style="clip-rule:evenodd"
         id="path18"
         d="M 7.72266,1323.1 235.977,150.953 C 251.594,32.2734 391.539,18.7344 430.078,156.785 l 223.848,980.485 c 24.277,122.5 -12.715,272.12 -105.293,284.84 L 27.2773,1421.04 C 1.25,1411.85 -2.53125,1375.91 7.72266,1323.1 Z M 281.105,1336.59 453.813,466.93 c 3.472,-20.203 26.71,-8.52 25.328,11.761 L 307.934,1348.8 c -6.137,24.45 -30.821,7.54 -26.829,-12.21 z m -139.617,0 212.801,-1071.567 c 3.477,-20.199 26.633,-9.96 25.246,10.317 L 168.316,1348.8 c -6.136,24.45 -30.824,7.54 -26.828,-12.21 z" /></clipPath><linearGradient
       id="linearGradient26"
       gradientTransform="matrix(0,10,-10,0,337.834,720.424)"
       gradientUnits="userSpaceOnUse"
       y2="0"
       x2="70.1689"
       y1="0"
       x1="-70.1689"><stop
         id="stop22"
         offset="0"
         style="stop-opacity:1;stop-color:#000066" /><stop
         id="stop24"
         offset="1"
         style="stop-opacity:1;stop-color:#00c7fc" /></linearGradient><clipPath
       id="clipPath36"
       clipPathUnits="userSpaceOnUse"><path
         style="clip-rule:evenodd"
         id="path34"
         d="m 380.859,20.6328 c 44.758,31.4961 84.555,88.7032 96.149,157.0312 l 218.347,958.816 c 21.305,85.54 55.313,130.88 104.29,128.88 l 459.515,-10.32 c 62.6,-3.5 82.75,-29.91 65.17,-144.33 L 1117.04,147.227 C 1066.12,-5.81641 995.465,-19.1875 927.941,31.8828 L 1132.06,785.945 c 11.33,72.578 -42.35,84.864 -67.67,0.141 L 849.508,21.3359 H 776.004 L 930,569.438 c 18.75,77.992 -42.246,95.542 -65.176,30.933 L 701.617,21.3359 h -72.054 l 98.382,362.5231 c 15.918,72.942 -43.445,84.735 -67.652,6.856 L 548.152,20.8047 Z M 979.77,1128.75 c 30.5,0 55.23,-24.73 55.23,-55.23 0,-30.5 -24.73,-55.23 -55.23,-55.23 -30.504,0 -55.231,24.73 -55.231,55.23 0,30.5 24.727,55.23 55.231,55.23 z" /></clipPath><linearGradient
       id="linearGradient44"
       spreadMethod="pad"
       gradientTransform="matrix(0,10,-10,0,861.383,372.342)"
       gradientUnits="userSpaceOnUse"
       y2="0"
       x2="80.551903"
       y1="0"
       x1="-80.551903"><stop
         id="stop38"
         offset="0"
         style="stop-opacity:1;stop-color:#00c2f7" /><stop
         id="stop40"
         offset="0.523438"
         style="stop-opacity:1;stop-color:#0061b0" /><stop
         id="stop42"
         offset="1"
         style="stop-opacity:1;stop-color:#000066" /></linearGradient><clipPath
       id="clipPath54"
       clipPathUnits="userSpaceOnUse"><path
         style="clip-rule:evenodd"
         id="path52"
         d="M 2405.03,1323.09 2176.78,150.949 c -15.62,-118.6795 -155.57,-132.2146 -194.1,5.836 l -223.85,980.485 c -24.28,122.5 12.71,272.12 105.29,284.84 l 521.36,-1.07 c 26.02,-9.19 29.81,-45.13 19.55,-97.95 z m -273.39,13.5 -172.7,-869.664 c -3.47,-20.203 -26.71,-8.516 -25.33,11.762 l 171.21,870.102 c 6.14,24.45 30.82,7.55 26.82,-12.2 z m 139.63,0 -212.81,-1071.57 c -3.47,-20.2 -26.63,-9.961 -25.24,10.312 l 211.22,1073.458 c 6.13,24.45 30.82,7.55 26.83,-12.2 z" /></clipPath><linearGradient
       id="linearGradient60"
       gradientTransform="matrix(0,10,-10,0,2074.92,720.424)"
       gradientUnits="userSpaceOnUse"
       y2="0"
       x2="70.1689"
       y1="0"
       x1="-70.1689"><stop
         id="stop56"
         offset="0"
         style="stop-opacity:1;stop-color:#00c7fa" /><stop
         id="stop58"
         offset="1"
         style="stop-opacity:1;stop-color:#000066" /></linearGradient><clipPath
       id="clipPath70"
       clipPathUnits="userSpaceOnUse"><path
         style="clip-rule:evenodd"
         id="path68"
         d="m 2031.89,20.6328 c -44.75,31.4961 -84.55,88.7032 -96.15,157.0312 L 1717.4,1136.48 c -21.31,85.54 -55.31,130.88 -104.29,128.88 l -459.51,-10.32 c -62.61,-3.5 -82.75,-29.91 -65.18,-144.33 L 1295.71,147.227 C 1346.64,-5.81641 1417.29,-19.1875 1484.81,31.8828 L 1280.7,785.945 c -11.33,72.578 42.34,84.864 67.67,0.141 L 1563.25,21.3359 h 73.5 l -154,548.1021 C 1464,647.43 1525,664.98 1547.93,600.371 L 1711.14,21.3359 h 72.05 l -98.38,362.5231 c -15.92,72.942 43.44,84.735 67.65,6.856 L 1864.6,20.8047 Z M 1432.98,1128.75 c -30.5,0 -55.22,-24.73 -55.22,-55.23 0,-30.5 24.72,-55.23 55.22,-55.23 30.5,0 55.23,24.73 55.23,55.23 0,30.5 -24.73,55.23 -55.23,55.23 z" /></clipPath><linearGradient
       id="linearGradient78"
       spreadMethod="pad"
       gradientTransform="matrix(0,10,-10,0,1593.47,372.342)"
       gradientUnits="userSpaceOnUse"
       y2="0"
       x2="80.551903"
       y1="0"
       x1="-80.551903"><stop
         id="stop72"
         offset="0"
         style="stop-opacity:1;stop-color:#000066" /><stop
         id="stop74"
         offset="0.703125"
         style="stop-opacity:1;stop-color:#0063b0" /><stop
         id="stop76"
         offset="1"
         style="stop-opacity:1;stop-color:#00c7fa" /></linearGradient></defs><g
     transform="matrix(1.3333333,0,0,-1.3333333,0,190.66667)"
     id="g10"><g
       transform="scale(0.1)"
       id="g12"><g
         id="g14"><g
           clip-path="url(#clipPath20)"
           id="g16"><path
             id="path28"
             style="fill:url(#linearGradient26);fill-opacity:1;fill-rule:nonzero;stroke:none"
             d="M 7.72266,1323.1 235.977,150.953 C 251.594,32.2734 391.539,18.7344 430.078,156.785 l 223.848,980.485 c 24.277,122.5 -12.715,272.12 -105.293,284.84 L 27.2773,1421.04 C 1.25,1411.85 -2.53125,1375.91 7.72266,1323.1 Z M 281.105,1336.59 453.813,466.93 c 3.472,-20.203 26.71,-8.52 25.328,11.761 L 307.934,1348.8 c -6.137,24.45 -30.821,7.54 -26.829,-12.21 z m -139.617,0 212.801,-1071.567 c 3.477,-20.199 26.633,-9.96 25.246,10.317 L 168.316,1348.8 c -6.136,24.45 -30.824,7.54 -26.828,-12.21 v 0" /></g></g><g
         id="g30"><g
           clip-path="url(#clipPath36)"
           id="g32"><path
             id="path46"
             style="fill:url(#linearGradient44);fill-opacity:1;fill-rule:nonzero;stroke:none"
             d="m 380.859,20.6328 c 44.758,31.4961 84.555,88.7032 96.149,157.0312 l 218.347,958.816 c 21.305,85.54 55.313,130.88 104.29,128.88 l 459.515,-10.32 c 62.6,-3.5 82.75,-29.91 65.17,-144.33 L 1117.04,147.227 C 1066.12,-5.81641 995.465,-19.1875 927.941,31.8828 L 1132.06,785.945 c 11.33,72.578 -42.35,84.864 -67.67,0.141 L 849.508,21.3359 H 776.004 L 930,569.438 c 18.75,77.992 -42.246,95.542 -65.176,30.933 L 701.617,21.3359 h -72.054 l 98.382,362.5231 c 15.918,72.942 -43.445,84.735 -67.652,6.856 L 548.152,20.8047 Z M 979.77,1128.75 c 30.5,0 55.23,-24.73 55.23,-55.23 0,-30.5 -24.73,-55.23 -55.23,-55.23 -30.504,0 -55.231,24.73 -55.231,55.23 0,30.5 24.727,55.23 55.231,55.23 v 0" /></g></g><g
         id="g48"><g
           clip-path="url(#clipPath54)"
           id="g50"><path
             id="path62"
             style="fill:url(#linearGradient60);fill-opacity:1;fill-rule:nonzero;stroke:none"
             d="M 2405.03,1323.09 2176.78,150.949 c -15.62,-118.6795 -155.57,-132.2146 -194.1,5.836 l -223.85,980.485 c -24.28,122.5 12.71,272.12 105.29,284.84 l 521.36,-1.07 c 26.02,-9.19 29.81,-45.13 19.55,-97.95 z m -273.39,13.5 -172.7,-869.664 c -3.47,-20.203 -26.71,-8.516 -25.33,11.762 l 171.21,870.102 c 6.14,24.45 30.82,7.55 26.82,-12.2 z m 139.63,0 -212.81,-1071.57 c -3.47,-20.2 -26.63,-9.961 -25.24,10.312 l 211.22,1073.458 c 6.13,24.45 30.82,7.55 26.83,-12.2 v 0" /></g></g><g
         id="g64"><g
           clip-path="url(#clipPath70)"
           id="g66"><path
             id="path80"
             style="fill:url(#linearGradient78);fill-opacity:1;fill-rule:nonzero;stroke:none"
             d="m 2031.89,20.6328 c -44.75,31.4961 -84.55,88.7032 -96.15,157.0312 L 1717.4,1136.48 c -21.31,85.54 -55.31,130.88 -104.29,128.88 l -459.51,-10.32 c -62.61,-3.5 -82.75,-29.91 -65.18,-144.33 L 1295.71,147.227 C 1346.64,-5.81641 1417.29,-19.1875 1484.81,31.8828 L 1280.7,785.945 c -11.33,72.578 42.34,84.864 67.67,0.141 L 1563.25,21.3359 h 73.5 l -154,548.1021 C 1464,647.43 1525,664.98 1547.93,600.371 L 1711.14,21.3359 h 72.05 l -98.38,362.5231 c -15.92,72.942 43.44,84.735 67.65,6.856 L 1864.6,20.8047 Z M 1432.98,1128.75 c -30.5,0 -55.22,-24.73 -55.22,-55.23 0,-30.5 24.72,-55.23 55.22,-55.23 30.5,0 55.23,24.73 55.23,55.23 0,30.5 -24.73,55.23 -55.23,55.23 v 0" /></g></g></g></g></svg>