<?xml version="1.0" encoding="UTF-8" standalone="no"?>
<svg
   xmlns:dc="http://purl.org/dc/elements/1.1/"
   xmlns:cc="http://creativecommons.org/ns#"
   xmlns:rdf="http://www.w3.org/1999/02/22-rdf-syntax-ns#"
   xmlns:svg="http://www.w3.org/2000/svg"
   xmlns="http://www.w3.org/2000/svg"
   xmlns:sodipodi="http://sodipodi.sourceforge.net/DTD/sodipodi-0.dtd"
   xmlns:inkscape="http://www.inkscape.org/namespaces/inkscape"
   viewBox="0 0 322.66666 190.66667"
   height="190.66667"
   width="322.66666"
   xml:space="preserve"
   id="svg2"
   version="1.1"
   sodipodi:docname="LogoBG.svg"
   inkscape:version="1.0.2 (e86c8708, 2021-01-15)"><sodipodi:namedview
     pagecolor="#ffffff"
     bordercolor="#666666"
     borderopacity="1"
     objecttolerance="10"
     gridtolerance="10"
     guidetolerance="10"
     inkscape:pageopacity="0"
     inkscape:pageshadow="2"
     inkscape:window-width="1440"
     inkscape:window-height="900"
     id="namedview872"
     showgrid="false"
     inkscape:zoom="2.2066116"
     inkscape:cx="215.33756"
     inkscape:cy="117.8241"
     inkscape:window-x="0"
     inkscape:window-y="0"
     inkscape:window-maximized="0"
     inkscape:current-layer="svg2" /><metadata
     id="metadata8"><rdf:RDF><cc:Work
         rdf:about=""><dc:format>image/svg+xml</dc:format><dc:type
           rdf:resource="http://purl.org/dc/dcmitype/StillImage" /><dc:title></dc:title></cc:Work></rdf:RDF></metadata><defs
     id="defs6"><clipPath
       id="clipPath20"
       clipPathUnits="userSpaceOnUse"><path
         style="clip-rule:evenodd"
         id="path18"
         d="M 7.72266,1323.1 235.977,150.953 C 251.594,32.2734 391.539,18.7344 430.078,156.785 l 223.848,980.485 c 24.277,122.5 -12.715,272.12 -105.293,284.84 L 27.2773,1421.04 C 1.25,1411.85 -2.53125,1375.91 7.72266,1323.1 Z M 281.105,1336.59 453.813,466.93 c 3.472,-20.203 26.71,-8.52 25.328,11.761 L 307.934,1348.8 c -6.137,24.45 -30.821,7.54 -26.829,-12.21 z m -139.617,0 212.801,-1071.567 c 3.477,-20.199 26.633,-9.96 25.246,10.317 L 168.316,1348.8 c -6.136,24.45 -30.824,7.54 -26.828,-12.21 z" /></clipPath><linearGradient
       id="linearGradient26"
       gradientTransform="matrix(0.48730629,1.2410924,1.2410924,-0.48730629,319.68997,98.517836)"
       gradientUnits="userSpaceOnUse"
       y2="0"
       x2="70.1689"
       y1="0"
       x1="-70.1689"><stop
         id="stop22"
         offset="0"
         style="stop-opacity:1;stop-color:#000066" /><stop
         id="stop24"
         offset="1"
         style="stop-opacity:1;stop-color:#00c7fc" /></linearGradient><clipPath
       id="clipPath36"
       clipPathUnits="userSpaceOnUse"><path
         style="clip-rule:evenodd"
         id="path34"
         d="m 380.859,20.6328 c 44.758,31.4961 84.555,88.7032 96.149,157.0312 l 218.347,958.816 c 21.305,85.54 55.313,130.88 104.29,128.88 l 459.515,-10.32 c 62.6,-3.5 82.75,-29.91 65.17,-144.33 L 1117.04,147.227 C 1066.12,-5.81641 995.465,-19.1875 927.941,31.8828 L 1132.06,785.945 c 11.33,72.578 -42.35,84.864 -67.67,0.141 L 849.508,21.3359 H 776.004 L 930,569.438 c 18.75,77.992 -42.246,95.542 -65.176,30.933 L 701.617,21.3359 h -72.054 l 98.382,362.5231 c 15.918,72.942 -43.445,84.735 -67.652,6.856 L 548.152,20.8047 Z M 979.77,1128.75 c 30.5,0 55.23,-24.73 55.23,-55.23 0,-30.5 -24.73,-55.23 -55.23,-55.23 -30.504,0 -55.231,24.73 -55.231,55.23 0,30.5 24.727,55.23 55.231,55.23 z" /></clipPath><linearGradient
       id="linearGradient44"
       spreadMethod="pad"
       gradientTransform="matrix(0.48730629,1.2410924,1.2410924,-0.48730629,237.75045,80.830515)"
       gradientUnits="userSpaceOnUse"
       y2="0"
       x2="80.551903"
       y1="0"
       x1="-80.551903"><stop
         id="stop38"
         offset="0"
         style="stop-opacity:1;stop-color:#00c2f7" /><stop
         id="stop40"
         offset="0.523438"
         style="stop-opacity:1;stop-color:#0061b0" /><stop
         id="stop42"
         offset="1"
         style="stop-opacity:1;stop-color:#000066" /></linearGradient><clipPath
       id="clipPath54"
       clipPathUnits="userSpaceOnUse"><path
         style="clip-rule:evenodd"
         id="path52"
         d="M 2405.03,1323.09 2176.78,150.949 c -15.62,-118.6795 -155.57,-132.2146 -194.1,5.836 l -223.85,980.485 c -24.28,122.5 12.71,272.12 105.29,284.84 l 521.36,-1.07 c 26.02,-9.19 29.81,-45.13 19.55,-97.95 z m -273.39,13.5 -172.7,-869.664 c -3.47,-20.203 -26.71,-8.516 -25.33,11.762 l 171.21,870.102 c 6.14,24.45 30.82,7.55 26.82,-12.2 z m 139.63,0 -212.81,-1071.57 c -3.47,-20.2 -26.63,-9.961 -25.24,10.312 l 211.22,1073.458 c 6.13,24.45 30.82,7.55 26.83,-12.2 z" /></clipPath><linearGradient
       id="linearGradient60"
       gradientTransform="matrix(0.4873063,1.2410924,1.2410924,-0.4873063,104.10155,183.16713)"
       gradientUnits="userSpaceOnUse"
       y2="0"
       x2="70.1689"
       y1="0"
       x1="-70.1689"><stop
         id="stop56"
         offset="0"
         style="stop-opacity:1;stop-color:#00c7fa" /><stop
         id="stop58"
         offset="1"
         style="stop-opacity:1;stop-color:#000066" /></linearGradient><clipPath
       id="clipPath70"
       clipPathUnits="userSpaceOnUse"><path
         style="clip-rule:evenodd"
         id="path68"
         d="m 2031.89,20.6328 c -44.75,31.4961 -84.55,88.7032 -96.15,157.0312 L 1717.4,1136.48 c -21.31,85.54 -55.31,130.88 -104.29,128.88 l -459.51,-10.32 c -62.61,-3.5 -82.75,-29.91 -65.18,-144.33 L 1295.71,147.227 C 1346.64,-5.81641 1417.29,-19.1875 1484.81,31.8828 L 1280.7,785.945 c -11.33,72.578 42.34,84.864 67.67,0.141 L 1563.25,21.3359 h 73.5 l -154,548.1021 C 1464,647.43 1525,664.98 1547.93,600.371 L 1711.14,21.3359 h 72.05 l -98.38,362.5231 c -15.92,72.942 43.44,84.735 67.65,6.856 L 1864.6,20.8047 Z M 1432.98,1128.75 c -30.5,0 -55.22,-24.73 -55.22,-55.23 0,-30.5 24.72,-55.23 55.22,-55.23 30.5,0 55.23,24.73 55.23,55.23 0,30.5 -24.73,55.23 -55.23,55.23 z" /></clipPath><linearGradient
       id="linearGradient78"
       spreadMethod="pad"
       gradientTransform="matrix(0.48730629,1.2410924,1.2410924,-0.48730629,146.89169,116.50557)"
       gradientUnits="userSpaceOnUse"
       y2="0"
       x2="80.551903"
       y1="0"
       x1="-80.551903"><stop
         id="stop72"
         offset="0"
         style="stop-opacity:1;stop-color:#000066" /><stop
         id="stop74"
         offset="0.703125"
         style="stop-opacity:1;stop-color:#0063b0" /><stop
         id="stop76"
         offset="1"
         style="stop-opacity:1;stop-color:#00c7fa" /></linearGradient></defs><g
     transform="matrix(-1.2410924,0.48730627,0.48730627,1.2410924,326.51158,-7.3563016)"
     id="g10"
     style="opacity:0.04823151"><g
       transform="scale(0.1)"
       id="g12"><g
         id="g14"><g
           clip-path="url(#clipPath20)"
           id="g16"><path
             id="path28"
             style="fill:url(#linearGradient26);fill-opacity:1;fill-rule:nonzero;stroke:none;stroke-width:0.133333"
             transform="matrix(-6.9811449,2.7410978,2.7410978,6.9811449,2299.589,-843.64477)"
             d="m 293.14258,14.949219 c -6.99597,-0.233633 -13.58234,6.229212 -12.36719,18.111328 l 19.99805,132.595703 c 1.77005,9.81053 6.74306,19.73947 13.04492,25.51172 0.27191,-0.0183 0.58903,-0.0124 1.06641,0.0332 0.15355,0.0208 0.30684,0.0461 0.46093,0.0625 0.004,3.5e-4 0.01,-0.002 0.0137,-0.002 -4e-4,-0.011 3.9e-4,-0.0222 0,-0.0332 0.0511,0.003 0.0777,0.0102 0.125,0.0137 0.0632,-0.0136 0.11216,-0.0153 0.12695,0.0117 0.22541,-0.0197 0.54522,-0.009 1.0625,-0.008 0.59875,10e-4 1.19617,-9e-4 1.79492,-0.004 0.009,0.004 0.0169,0.006 0.0254,0.01 0.29333,-0.12526 0.67607,-0.0595 1.00195,-0.11523 0.52621,-0.1087 1.10852,0.24358 1.63086,0.12109 0.36223,-0.0262 0.72506,-0.0242 1.08789,-0.0195 -0.0302,-0.11802 -0.0644,-0.23554 -0.0859,-0.35547 -0.0135,-0.0754 -0.0412,-0.2017 -0.0664,-0.3164 -0.51104,-0.98457 -0.32865,-1.57356 -0.29492,-2.72657 -0.22297,-0.5821 -0.13572,-1.24192 0.0312,-1.91015 0.0298,-0.20975 0.0833,-0.40974 0.15625,-0.60352 0.0965,-0.33633 0.19257,-0.66815 0.25976,-0.98633 0.1224,-0.57956 0.26552,-1.1558 0.41602,-1.72851 -0.0115,-0.71188 0.1157,-1.2652 0.46094,-2.0918 0.0545,-0.13052 0.14332,-0.24424 0.22851,-0.35937 0.0225,-0.0761 0.0439,-0.15244 0.0664,-0.22852 -0.0426,0.0359 -0.0878,0.0661 -0.11914,0.0527 -0.0748,-0.0317 -0.0174,-0.15964 -0.0274,-0.24024 0.51391,-2.70235 -0.0758,-0.039 0.53711,-1.98047 -0.0112,-0.15405 -0.14279,0.20914 -0.12109,0.14844 0.15609,-0.43598 0.25687,-0.89696 0.45313,-1.31445 -0.0618,-0.14396 -0.10668,-1.36525 -0.10743,-1.76563 0.0264,-0.61127 0.0334,-1.22221 0.0234,-1.83398 -0.003,-1.2373 0,-2.47559 0,-3.71289 0.0727,-0.40149 0.15125,-0.80339 0.22852,-1.20508 -0.89485,0.21862 -1.12595,0.30548 -1.13282,-0.41016 0,0 -0.002,0 -0.002,0 v -0.50195 -0.21094 c -0.0234,-0.0186 -0.0156,-0.16098 0,-0.33398 v -2.64649 c -0.006,-0.21419 -0.008,-0.42789 0,-0.64062 v -0.69532 c -0.0748,-0.0689 -0.15609,-0.13317 -0.22656,-0.20507 0.0997,-0.45835 0.16633,-0.73704 0.22656,-0.96289 v -3.18555 -3.81641 -1.36328 c -0.64466,-0.97255 -0.66389,-1.57795 -0.36523,-3.01172 0.0183,-0.0879 -0.05,0.17262 -0.0606,0.26172 -0.0488,-0.46553 -0.0363,-0.93516 -0.0273,-1.40234 -0.0364,-0.83803 0.0669,-1.38219 0.36914,-2.25196 0.0884,-0.25441 0.26998,-0.46759 0.36718,-0.71874 0.0307,-0.0794 -0.13442,0.11205 -0.16992,0.18945 0.16222,-0.49521 0.24314,-0.87287 0.375,-1.20508 0.004,-0.0487 0.014,-0.11009 0.0117,-0.14453 -0.014,-0.21145 -0.0291,-0.42332 -0.043,-0.63477 -0.0677,-0.91799 0.0531,0.96929 0.12891,-1.25781 0.003,-0.0817 -0.0801,0.28359 -0.1211,0.21289 -0.0379,-0.0658 -0.009,-0.87003 -0.004,-0.52148 -0.0197,-0.61329 -0.005,-1.22808 -0.006,-1.8418 -0.002,-0.51257 -0.002,-1.02454 -0.002,-1.53711 6e-5,-0.46318 -10e-6,-0.92744 0,-1.39062 3e-5,-0.52778 0,-1.05425 0,-1.58204 v -2.63476 -1.78125 -1.96875 c 0.0369,-0.18452 0.007,-0.78922 -0.0137,-1.23047 -0.183,-0.30536 -0.36048,-0.61311 -0.48437,-0.94531 -0.19209,-0.51515 -0.0748,-2.00109 0.0547,-2.5625 0.0998,-0.43274 0.2586,-0.85076 0.38867,-1.27539 0.0306,-0.0248 0.0435,-0.0389 0.0723,-0.0625 -0.0276,-0.13734 -0.005,-0.0233 -0.041,-0.20313 -0.0178,-0.69312 0.0414,-1.38498 0.0273,-2.07812 -0.011,-0.71627 -0.004,-1.43208 -0.004,-2.14844 -1.8e-4,-0.71898 -1.1e-4,-1.43727 0,-2.15625 1.3e-4,-0.85753 0,-1.71669 0,-2.57422 0,-1.24918 10e-6,-2.49691 0,-3.74609 v -3.33789 -4.75 c 0,-0.23296 0.0309,-0.46831 0,-0.69922 -0.20362,-1.52285 -0.13761,0.1594 -0.35743,-1.21094 -0.22195,-1.383447 -0.22443,-2.662326 -0.14843,-4.046875 0.15473,-1.378551 0.0598,-2.771817 0.0469,-4.15625 0.005,-1.467203 0.01,-2.935123 0.008,-4.402344 -0.003,-1.420767 -0.002,-2.840948 -0.002,-4.261719 -8e-5,-1.091152 -3e-5,-2.182283 0,-3.273437 -0.0558,-1.075053 0.0201,-2.030231 0.30274,-3.083984 0.32546,-1.213373 0.30673,-0.454227 0.30273,-1.029297 -0.0126,0.03183 -0.0321,0.129223 -0.0391,0.0957 -0.20524,-0.970861 -0.14546,-2.032864 -0.12696,-3.017578 0.0366,-1.129693 0.0147,-2.260614 0.0117,-3.390625 0.001,-1.233307 0.002,-2.465911 0.002,-3.699219 -6.3e-4,-1.285283 -4e-5,-2.570186 0,-3.855469 -2e-5,-1.104255 -10e-6,-2.208245 0,-3.3125 0.12166,-0.505011 -0.14771,-1.127647 0,-1.625 0.14737,-0.49621 0.31915,-0.98407 0.47851,-1.476562 0.0895,-0.150699 0.20002,-0.292042 0.27149,-0.451172 -0.0862,0.0629 -0.17584,0.118201 -0.1836,0.08594 -0.0762,-0.317464 -0.0974,-0.695863 -0.13086,-1.017578 -0.0221,-0.709387 0.002,-1.057598 0.13867,-1.347656 l -19.5664,-30.763672 c -2.89558,-5.238078 -7.23992,-7.787555 -11.4375,-7.927734 z m 44.23633,59.498047 c 0.17885,0.573482 0.34388,1.097699 0.60156,1.945312 0.0963,0.316774 0.1944,0.634156 0.29297,0.951172 0.0825,-0.281533 0.23213,-0.541567 0.45117,-0.779297 z m -12.99414,48.458984 c -0.13662,-0.0104 -0.50434,0.19301 -0.52344,0.31445 -0.0206,0.13075 -0.0257,0.26303 -0.041,0.39453 0.59379,-0.51248 0.68189,-0.70004 0.56446,-0.70898 z m 43.27929,0.6875 c -0.0409,0.50907 -0.0825,1.01824 -0.12304,1.52734 0.0404,0.19789 0.0868,0.39423 0.1289,0.5918 0.0455,-0.0723 0.0928,-0.14303 0.13867,-0.21484 0.0327,-0.32104 0.0716,-0.64155 0.10157,-0.96289 0.0213,-0.22783 -0.10036,-0.5913 -0.2461,-0.94141 z m -43.99804,5.25391 c 0.0116,0.0793 0.0114,0.0531 0.0254,0.15234 0.0931,0.12883 0.34799,0.53001 0.27929,0.38672 -0.0889,-0.18537 -0.19932,-0.36157 -0.30468,-0.53906 z m 51.0039,22.1289 c -0.36978,0.63896 -0.74096,1.27906 -1.06836,1.90625 -0.26668,1.07889 -0.52455,2.16045 -0.77344,3.24219 1.29753,0.0199 1.39637,1.02235 0.88672,2.43164 0.1076,-0.0358 0.2031,-0.0572 0.30469,-0.0859 0.09,-0.37953 0.17764,-0.7598 0.26953,-1.13867 0.13164,-1.63374 0.26099,-3.70349 0.38086,-6.35547 z m -51.33008,2.42578 c 0.0196,0.24462 -0.0354,0.15299 0.52344,0.69922 -0.22252,-0.27487 -0.36344,-0.47866 -0.52344,-0.69922 z m 68.59375,7.16602 c -0.38431,0.23083 -0.81403,0.50167 -1.29687,0.81445 -0.26273,2.40761 -0.56479,4.94658 -0.96484,7.53516 0.71537,-1.13023 1.39727,-2.27969 2.02734,-3.45899 0.34477,-0.6453 0.83636,-1.76463 1.20312,-2.82421 -0.26327,-0.65611 -0.60602,-1.35564 -0.96875,-2.06641 z m -59.46484,15.85156 c -0.0189,0.18566 -0.058,0.60502 -0.0723,0.74219 0.0612,-0.0356 0.12407,-0.0684 0.18555,-0.10352 -0.0392,-0.17687 -0.0854,-0.36383 -0.10156,-0.5039 -0.005,-0.045 -0.007,-0.0898 -0.0117,-0.13477 z m -10.25781,14.41797 c 0.005,0.0358 0.001,0.0754 0.0137,0.10742 0.0435,0.11098 0.11729,0.20468 0.19727,0.29492 0.0195,2.5e-4 0.0391,0.002 0.0586,0.002 -0.0972,-0.13987 -0.19493,-0.2805 -0.26953,-0.4043 z" /></g></g><g
         id="g30"><g
           clip-path="url(#clipPath36)"
           id="g32"><path
             id="path46"
             style="fill:url(#linearGradient44);fill-opacity:1;fill-rule:nonzero;stroke:none;stroke-width:0.133333"
             transform="matrix(-6.9811449,2.7410978,2.7410978,6.9811449,2299.589,-843.64477)"
             d="m 280.24805,13.763672 -20.75391,8.173828 4.10938,51.375 c 0.79078,10.845126 -7.15153,12.273785 -8.73047,2.445312 l -5.45703,-49.787109 -8.94141,3.511719 7.96094,79.816408 c 0.30261,9.13597 -8.12216,9.92916 -9.59571,-0.66406 l -7.59765,-75.527348 -9.12305,3.582031 10.59766,105.382817 c 0.98616,11.74876 -6.27369,12.84096 -8.4043,3.28125 L 212.89844,41.820312 c -10.86904,-3.047807 -18.98592,2.053833 -17.84766,23.529297 l 20.60938,125.919921 c 9.26519,0.0474 18.52959,-0.23445 27.79492,-0.24609 9.07065,0.002 13.59361,-0.0436 23.34961,0.22656 3.25962,0.0903 6.51562,0.29626 9.77343,0.4375 1.22282,0.053 2.44544,0.10205 3.66797,0.1543 l 8.6836,-3.1875 c 6.17596,-2.13846 8.18833,-9.42362 6.66406,-21.07813 L 275.96875,37.9375 c -1.89074,-9.045119 0.25924,-18.083786 4.2793,-24.173828 z M 248.06836,195.37109 c 0.01,0.0631 0.0156,0.12639 0.0254,0.18946 0.0977,-4e-5 0.19604,3e-5 0.29297,0 0.006,-0.0234 0.0115,-0.047 0.0176,-0.0703 -0.008,-0.0257 -0.0138,-0.0523 -0.0215,-0.0781 -0.10572,-0.0165 -0.20966,-0.0276 -0.31445,-0.041 z m 0.31836,0.18946 c -0.0644,0.24915 -0.12982,0.4984 -0.19336,0.74804 0.0225,0.22476 0.0362,0.45051 0.043,0.67579 0.25304,-0.007 0.50165,-0.0124 0.75976,-0.0195 -0.23835,-0.43976 -0.4166,-0.91453 -0.5664,-1.40429 -0.0142,0 -0.0288,-1e-5 -0.043,0 z m -0.19336,0.74804 c -0.025,-0.2495 -0.0611,-0.49903 -0.0996,-0.74804 -0.0176,0 -0.0351,-1e-5 -0.0527,0 -0.0557,0.47771 -0.10515,0.9558 -0.15235,1.43359 0.0342,-9.2e-4 0.0693,-9.5e-4 0.10352,-0.002 0.0667,-0.22793 0.14201,-0.45118 0.20117,-0.6836 z m 0.91211,0.85352 c -0.28964,0.004 -0.5795,0.009 -0.86914,0.0137 5.6e-4,0.12122 0.004,0.2418 -0.002,0.36328 -8.6e-4,0.0168 -0.009,0.0263 -0.0137,0.0391 0.40958,-0.0126 0.71402,-0.0173 1.14649,-0.0312 -0.0957,-0.12382 -0.1814,-0.25227 -0.26172,-0.38477 z m -1.16797,0.0195 c -0.0234,3.5e-4 -0.0469,0.002 -0.0703,0.002 -0.0109,0.12298 -0.0312,0.2463 -0.0391,0.36914 0.0434,-0.11997 0.0711,-0.24844 0.10938,-0.37109 z m -0.49219,0.37695 c -0.8203,0.0229 -1.64052,0.052 -2.46093,0.0703 -1.11168,0.0248 -2.224,0.0349 -3.33594,0.0566 -0.0209,0.0246 -0.0438,0.043 -0.0645,0.0684 1.79545,-0.0292 3.94773,-0.0973 6.05664,-0.16016 -0.0666,-0.013 -0.14262,-0.0366 -0.19531,-0.0352 z" /></g></g><g
         id="g48"><g
           clip-path="url(#clipPath54)"
           id="g50"><path
             id="path62"
             style="fill:url(#linearGradient60);fill-opacity:1;fill-rule:nonzero;stroke:none;stroke-width:0.133333"
             transform="matrix(-6.9811449,2.7410978,2.7410978,6.9811449,2299.589,-843.64477)"
             d="m 74.298828,100.69531 c -7.367317,0.12705 -12.992806,7.07632 -10.589844,16.75781 l 13.81836,75.1543 c 1.305521,-5e-5 2.610955,-0.001 3.916015,-0.002 0.262352,1.9e-4 0.524739,6e-5 0.78711,0 0.04206,-0.0749 0.08551,-0.14839 0.142578,-0.2168 0.632392,-0.75807 1.568767,-0.75572 2.669922,-0.34375 0.40295,0.0926 0.80446,0.18412 1.193359,0.24414 0.393622,-0.063 0.668714,-0.0466 1.048828,0.0918 1.325477,0.0604 2.306687,0.12733 3.363282,0.21289 1.088063,-0.0792 2.175336,-0.18052 3.261718,-0.28906 0.07132,-0.0115 0.140637,-0.0362 0.212891,-0.041 0.144568,-0.01 0.304074,-0.0145 0.451172,-0.0234 0.377515,-0.0367 0.755661,-0.0769 1.132812,-0.10937 1.767263,-0.1446 3.445177,-0.59066 5.218749,-0.59766 0.95184,-0.004 1.92419,0.13832 2.875,0.19922 2.152,0.024 4.30332,-0.049 6.45508,-0.041 2.5254,0.0138 5.05075,0.008 7.57617,0.006 1.34163,-0.15707 2.72296,-0.30879 4.21485,-0.44922 1.50283,-0.14142 3.01497,-0.17302 4.52343,-0.22852 5.82961,-0.21464 11.65799,-0.24005 17.48828,-0.23633 L 88.082031,108.71875 c -4.315958,-5.72091 -9.362812,-8.09967 -13.783203,-8.02344 z m 51.009762,99.16407 c 4.27312,0.25372 9.12994,0.5186 13.69532,0.77734 0.13356,-0.0512 0.28841,-0.11779 0.41797,-0.16602 -7.35563,-0.2867 -7.75186,-0.29876 -12.98633,-0.60351 -0.37563,-0.002 -0.75133,-0.006 -1.12696,-0.008 z m 19.18555,0.8125 c -0.0259,0.0864 -0.0568,0.17532 -0.0957,0.27148 2.35962,0.13121 4.38773,0.25472 6.85547,0.38867 l -0.14063,-0.20508 c -0.37689,-0.094 -0.76681,-0.21146 -1.16016,-0.33593 -0.0303,0.0311 -0.0731,0.0604 -0.10156,0.0918 -3.72238,-0.14971 -2.94681,-0.11558 -5.35742,-0.21093 z m -10.6582,0.4375 c -3.57162,0.0311 -7.05587,0.59369 -10.41797,1.90234 1.02866,-0.01 2.05733,-0.0182 3.08594,-0.0273 2.52465,-0.0713 5.13057,-0.19672 7.75,-0.33008 1.14833,-0.52523 2.20138,-0.98106 3.19921,-1.39649 -1.21324,-0.096 -2.4213,-0.15887 -3.61718,-0.14843 z m 0.41797,1.54492 c -0.19884,0.0909 -0.38505,0.17177 -0.58789,0.26562 0.82026,-0.008 1.64068,-0.0126 2.46093,-0.0215 2.37438,-0.012 4.74868,-0.0232 7.12305,-0.0352 0.17648,-0.23845 0.32217,-0.4564 0.46289,-0.66797 -3.19549,0.14394 -6.34666,0.30053 -9.45898,0.45899 z m 9.45898,-0.45899 c 0.11416,-0.005 0.22953,-0.007 0.34375,-0.0117 -0.0996,-0.0194 -0.19927,-0.0436 -0.29883,-0.0625 -0.0173,0.0264 -0.0271,0.0474 -0.0449,0.0742 z m -61.814452,14.19141 0.564453,3.06836 c 1.80957,-0.56747 3.628258,-1.10497 5.458984,-1.60156 -0.464412,-0.25552 -0.914755,-0.53475 -1.326172,-0.86914 -0.08048,-0.0654 -0.124789,-0.11672 -0.173828,-0.16993 -1.535254,-0.1022 -3.043368,-0.24869 -4.523437,-0.42773 z m 80.679682,1.54687 c -0.75469,0.29466 -1.58819,0.61419 -2.27734,0.88868 0.0423,1.5e-4 0.0846,-1.6e-4 0.12695,0 0.8527,-0.0977 1.70591,-0.19094 2.5586,-0.28907 z m -8.2246,17.72266 c 0.11343,0.25412 0.21412,0.45944 0.33984,0.75781 0.0295,0.0701 0.0303,0.13059 0.0195,0.1875 1.33284,-0.10865 2.68899,-0.21815 3.92773,-0.31836 0.90877,-0.16142 1.69265,-0.29281 2.6211,-0.45898 -2.303,-0.0512 -4.60521,-0.10486 -6.9082,-0.16797 z m -42.09571,4.51367 c -1.22469,0.017 -2.44951,0.0273 -3.67383,0.0586 -8.17417,0.20881 -2.60047,0.29756 -12.648433,0.35546 -3.102321,0.50962 -6.204393,1.01998 -9.306641,1.5293 l 0.09375,0.51563 c 8.191637,-0.81137 16.743304,-1.62662 25.576174,-2.41797 -0.0119,-0.0133 -0.0289,-0.0276 -0.041,-0.041 z m 21.64649,5.89649 c -1.84691,0.022 -4.04259,0.0149 -7.62891,0.0117 -0.73569,0.10714 -1.50175,0.21833 -2.24414,0.32618 0.53201,0.024 1.06362,0.0532 1.5957,0.0742 1.80758,0.0714 3.63231,0.0325 5.46094,-0.0352 0.93889,-0.12474 1.87758,-0.25167 2.81641,-0.37695 z m 10.85937,16.30273 c -2.35292,0.24108 -4.70528,0.48914 -7.05664,0.75 1.2575,0.2182 2.39636,0.42993 3.44336,0.63672 4.60461,-0.43434 8.9223,-0.83352 12.96484,-1.19727 -3.11723,-0.0631 -6.23434,-0.12515 -9.35156,-0.18945 z m -40.03906,20.92383 c -0.47462,0.0241 -0.94912,0.0508 -1.42383,0.0723 -2.39023,0.10811 -4.78204,0.17627 -7.173827,0.23243 1.002573,1.12133 2.182924,1.70438 3.572266,1.65625 z" /></g></g><g
         id="g64"><g
           clip-path="url(#clipPath70)"
           id="g66"><path
             id="path80"
             style="fill:url(#linearGradient78);fill-opacity:1;fill-rule:nonzero;stroke:none;stroke-width:0.133333"
             transform="matrix(-6.9811449,2.7410978,2.7410978,6.9811449,2299.589,-843.64477)"
             d="m 154.48242,61.664062 c -4.3977,-0.01057 -7.93383,2.779569 -10.69531,7.292969 l 62.07812,83.638669 c 4.94293,8.45549 -1.12028,12.59697 -8.39257,3.31641 l -63.93555,-84.441407 -9.12109,3.580078 45.82226,60.521489 c 6.12765,8.76582 -0.58777,13.91485 -6.58203,7.01367 l -48.47266,-63.910159 -8.94336,3.511719 29.87696,40.19922 c 5.53033,8.27698 -1.26273,12.63222 -8.0625,4.14648 L 96.111328,86.089844 75.339844,94.21875 c 7.088713,1.728261 14.816604,6.88983 19.585937,14.80469 l 55.701169,81.75976 c 9.28741,5.1e-4 18.574,0.0631 27.86133,0.0117 4.75806,-0.0599 9.5243,-0.13942 14.28906,-0.16406 4.76477,-0.0246 9.52804,0.006 14.28516,0.16211 1.47437,0.0485 2.91622,0.52757 4.40234,0.45117 10.66382,0.19351 21.32652,-0.2073 31.99024,-0.2207 2.34214,5.2e-4 3.99238,0.007 5.89648,0.008 -0.86513,-2.13194 -2.10555,-4.58823 -3.79687,-7.49805 L 172.87695,74.056641 c -7.31998,-8.772133 -13.41047,-12.3806 -18.39453,-12.392579 z m 93.58594,133.707028 c 0.01,0.0631 0.0156,0.12639 0.0254,0.18946 0.0977,-4e-5 0.19604,3e-5 0.29297,0 0.006,-0.0234 0.0115,-0.047 0.0176,-0.0703 -0.008,-0.0257 -0.0138,-0.0523 -0.0215,-0.0781 -0.10572,-0.0165 -0.20966,-0.0276 -0.31445,-0.041 z m 0.31836,0.18946 c -0.0644,0.24915 -0.12982,0.4984 -0.19336,0.74804 0.0225,0.22476 0.0362,0.45052 0.043,0.67579 0.25304,-0.007 0.50165,-0.0124 0.75976,-0.0195 -0.23835,-0.43976 -0.4166,-0.91453 -0.5664,-1.40429 -0.0142,0 -0.0288,-1e-5 -0.043,0 z m -0.19336,0.74804 c -0.025,-0.2495 -0.0611,-0.49903 -0.0996,-0.74804 -0.0176,0 -0.0351,-1e-5 -0.0527,0 -0.0557,0.47771 -0.10515,0.9558 -0.15235,1.43359 0.0342,-9.2e-4 0.0693,-0.001 0.10352,-0.002 0.0667,-0.22793 0.14201,-0.45118 0.20117,-0.6836 z m -75.52539,0.39258 c -6.00101,0.009 -12.00287,0.009 -18.00391,0.008 L 158,201.60547 c 4.77858,0.0746 9.57577,-0.0299 14.32227,0.3125 11.39758,-0.81446 20.17358,-1.46803 26.45507,-1.95508 -0.20592,-0.004 -0.23975,-0.004 -0.45117,-0.008 -0.19711,-0.14991 -0.83645,-0.47183 -0.58984,-0.44922 0.64601,0.0592 1.12495,0.10691 1.73828,0.16406 -0.0328,-0.36346 0.0668,-0.67235 0.37109,-0.84375 0.51164,-0.28823 1.04968,-0.5081 1.59766,-0.70117 0.0111,-0.14535 0.10703,-0.24974 0.32226,-0.28711 0.47742,-0.0829 0.95794,-0.13227 1.4375,-0.18945 1.42676,-0.28548 2.91719,-0.38702 4.41211,-0.43164 -0.5688,-0.018 -1.1369,-0.0477 -1.70507,-0.0781 -4.78315,0.0166 -9.56627,0.0283 -14.34961,0.0547 -3.72427,0.0206 -7.44756,0.0434 -11.17188,0.0547 -1.58611,0.005 -3.40239,0.81485 -4.75976,-0.006 -0.0186,-0.0113 -0.0325,-0.0275 -0.0508,-0.0391 -0.20228,-0.029 -0.4092,-0.0687 -0.61914,-0.11328 -0.97009,0.0505 -1.79024,0.0208 -1.9746,0.0332 0.0779,-0.12136 0.14756,-0.25066 0.21874,-0.37891 -0.18319,-0.0235 -0.3637,-0.0433 -0.53515,-0.043 z m 26.80664,2.96875 c 0.007,0.0752 0.0346,0.15696 0.0527,0.23633 0.38577,-0.03 0.97774,-0.0727 1.34766,-0.10156 -0.47357,-0.0447 -0.90619,-0.0887 -1.40039,-0.13477 z m 0.0527,0.23633 c -0.21469,0.0167 -0.53027,0.0396 -0.75,0.0566 0.35036,0.006 0.43268,0.009 0.76758,0.0156 -0.007,-0.0247 -0.012,-0.0479 -0.0176,-0.0723 z m 49.57813,-2.74414 c -0.28964,0.004 -0.5795,0.009 -0.86914,0.0137 5.6e-4,0.12122 0.004,0.2418 -0.002,0.36328 -8.6e-4,0.0168 -0.009,0.0263 -0.0137,0.0391 0.40958,-0.0126 0.71402,-0.0173 1.14649,-0.0312 -0.0957,-0.12382 -0.1814,-0.25227 -0.26172,-0.38477 z m -1.16797,0.0195 c -0.0234,3.5e-4 -0.0469,0.002 -0.0703,0.002 -0.0109,0.12298 -0.0312,0.2463 -0.0391,0.36914 0.0434,-0.11997 0.0711,-0.24844 0.10938,-0.37109 z m -0.49219,0.37695 c -0.8203,0.0229 -1.64052,0.052 -2.46093,0.0703 -1.11167,0.0248 -2.224,0.0349 -3.33594,0.0566 -0.0209,0.0246 -0.0438,0.043 -0.0645,0.0684 1.79545,-0.0292 3.94773,-0.0973 6.05664,-0.16016 -0.0666,-0.013 -0.14262,-0.0366 -0.19531,-0.0352 z m -44.49219,17.79102 c -1.1588,0.012 -2.31775,0.0196 -3.47656,0.0312 -0.3495,0.4729 -0.67041,0.91906 -1.00586,1.37891 1.08315,-0.0662 2.91895,-0.18602 4.11133,-0.26172 0.12694,-0.38759 0.23752,-0.75144 0.37109,-1.14844 z m -0.37109,1.14844 c -0.16819,0.51354 -0.33553,1.0243 -0.49219,1.52148 3.98761,-0.19656 7.97399,-0.42212 11.96094,-0.64648 l 4.44727,-1.86328 c -0.57087,0.0278 -1.14325,0.0459 -1.71289,0.082 -6.02548,0.38169 -10.08385,0.6447 -14.20313,0.90625 z m -0.49219,1.52148 c -1.56566,0.0772 -3.13143,0.14845 -4.69726,0.2168 -0.87651,1.21957 -1.70212,2.39274 -2.47656,3.51758 2.06779,-0.16488 4.13593,-0.32623 6.20312,-0.5 0.29517,-1.03742 0.61824,-2.11574 0.9707,-3.23438 z m -4.69726,0.2168 c 0.34335,-0.47775 0.7188,-0.98399 1.07812,-1.47656 -4.22729,0.25831 -7.71219,0.43736 -11.13086,0.56054 -2.22874,0.50236 -4.20854,0.93308 -6.34375,1.40821 1.27623,-0.0198 2.55196,-0.0359 3.82813,-0.0625 4.18994,-0.0874 8.38001,-0.24688 12.56836,-0.42969 z m -28.58985,-0.78125 c 0.0958,0.13136 0.19113,0.25632 0.28711,0.38867 1.05013,-0.11886 2.10037,-0.23567 3.15039,-0.35547 -1.11067,-0.009 -2.21243,-0.0175 -3.4375,-0.0332 z" /></g></g></g></g></svg>
