<svg xmlns="http://www.w3.org/2000/svg" width="113.539" height="18.653" viewBox="0 0 113.539 18.653">
    <defs>
        <style>.a{isolation:isolate;}.b{fill:#fff;}</style>
    </defs>
    <g transform="translate(-650.179 -482.519)">
        <g class="a" transform="translate(650.179 482.519)">
            <g class="a" transform="translate(0 0)">
                <path class="b" d="M660.367,512.126a4.422,4.422,0,0,0-4.52-3.456c-3.118,0-5.064,2.393-5.064,6.139s1.934,6.127,5.064,6.127a4.308,4.308,0,0,0,4.5-3.335h.6a4.856,4.856,0,0,1-5.1,3.9c-3.468,0-5.668-2.586-5.668-6.695s2.212-6.7,5.668-6.7a5.012,5.012,0,0,1,5.124,4.012Z" transform="translate(-650.179 -503.111)" />
                <path class="b" d="M717.2,482.519h.592v18.2H717.2Z" transform="translate(-704.095 -482.519)" />
                <path class="b" d="M733.825,517.855c0-2.212,1.571-3.456,4.592-3.7l4.7-.362v-1.172a3.627,3.627,0,0,0-3.928-3.952c-2.429,0-3.988,1.245-4.327,3.42H734.3c.278-2.465,2.151-3.976,4.895-3.976a4.171,4.171,0,0,1,4.52,4.471v8.725h-.592V518.35h-.012a5.127,5.127,0,0,1-4.979,3.154C735.6,521.5,733.825,519.993,733.825,517.855Zm9.294-1.33v-2.2l-4.6.35c-2.659.206-4.085,1.305-4.085,3.179,0,1.789,1.583,3.094,3.734,3.094A4.724,4.724,0,0,0,743.119,516.525Z" transform="translate(-717.474 -503.111)" />
                <path class="b" d="M799.654,508.114a4.226,4.226,0,0,1,4.568,3.964h-.58a3.719,3.719,0,0,0-3.988-3.408c-2.018,0-3.783,1.16-3.783,2.864,0,1.4.919,2.091,2.888,2.55l2.018.483c2.574.628,3.65,1.607,3.65,3.372,0,2.127-1.982,3.565-4.725,3.565-2.792,0-4.725-1.752-4.858-3.867h.6c.157,1.825,1.9,3.312,4.242,3.312,2.284,0,4.133-1.185,4.133-2.973,0-1.486-.919-2.32-3.227-2.864l-2.042-.471c-2.175-.519-3.275-1.426-3.275-3.094C795.279,509.516,797.249,508.114,799.654,508.114Z" transform="translate(-766.565 -503.111)" />
                <path class="b" d="M855.6,508.114a4.227,4.227,0,0,1,4.568,3.964h-.58a3.72,3.72,0,0,0-3.988-3.408c-2.018,0-3.783,1.16-3.783,2.864,0,1.4.918,2.091,2.888,2.55l2.018.483c2.574.628,3.65,1.607,3.65,3.372,0,2.127-1.982,3.565-4.725,3.565-2.792,0-4.725-1.752-4.858-3.867h.6c.157,1.825,1.9,3.312,4.242,3.312,2.284,0,4.133-1.185,4.133-2.973,0-1.486-.918-2.32-3.227-2.864l-2.042-.471c-2.175-.519-3.275-1.426-3.275-3.094C851.229,509.516,853.2,508.114,855.6,508.114Z" transform="translate(-811.578 -503.111)" />
            </g>
        </g>
        <g class="a" transform="translate(703.515 484.495)">
            <g class="a" transform="translate(0 0)">
                <path class="b" d="M923.024,506.887h2.462v2.188h.048a3.823,3.823,0,0,1,3.675-2.331,3.54,3.54,0,0,1,3.616,2.509h.059a4.256,4.256,0,0,1,4.044-2.509,3.977,3.977,0,0,1,4.21,4.258v8.8h-2.569V511.62a2.363,2.363,0,0,0-2.521-2.664,2.66,2.66,0,0,0-2.7,2.831V519.8h-2.533v-8.4a2.3,2.3,0,0,0-2.474-2.45,2.741,2.741,0,0,0-2.736,2.926V519.8h-2.581Z" transform="translate(-923.024 -503.985)" />
                <path class="b" d="M1025.966,516.006c0-2.26,1.748-3.568,4.936-3.77l3.485-.2v-1c0-1.475-.987-2.283-2.712-2.283a2.475,2.475,0,0,0-2.652,1.843h-2.414c.071-2.283,2.236-3.972,5.138-3.972,3.152,0,5.186,1.665,5.186,4.222V519.7h-2.462v-2.153h-.059a4.518,4.518,0,0,1-4.079,2.284C1027.75,519.836,1025.966,518.313,1025.966,516.006Zm8.421-1.154v-1.011l-3.14.214c-1.76.107-2.676.761-2.676,1.9,0,1.106.963,1.82,2.45,1.82A3.081,3.081,0,0,0,1034.386,514.852Z" transform="translate(-1005.843 -503.887)" />
                <path class="b" d="M1094.507,492.629v2.9h2.474v2.034h-2.474v7.219c0,1.118.5,1.641,1.582,1.641a8.355,8.355,0,0,0,.88-.059V508.4a7.278,7.278,0,0,1-1.451.131c-2.581,0-3.58-.987-3.58-3.485v-7.481h-1.784v-2.034h1.784v-2.9Z" transform="translate(-1057.483 -492.629)" />
                <path class="b" d="M1143.329,515.923c-.369,2.319-2.64,3.937-5.542,3.937-3.746,0-6.077-2.521-6.077-6.565s2.355-6.672,5.97-6.672c3.544,0,5.78,2.462,5.78,6.375v.9h-9.146v.155a3.412,3.412,0,0,0,3.521,3.711,2.972,2.972,0,0,0,3.033-1.844Zm-9-3.854h6.553a3.153,3.153,0,0,0-3.211-3.342A3.336,3.336,0,0,0,1134.325,512.069Z" transform="translate(-1090.915 -503.887)" />
            </g>
        </g>
        <g transform="translate(759.244 496.697)">
            <circle class="b" cx="2.237" cy="2.237" r="2.237" transform="translate(0 0)" />
        </g>
    </g>
</svg>