<svg width="32" height="38" viewBox="0 0 32 38" fill="none" xmlns="http://www.w3.org/2000/svg">
    <g clip-path="url(#clip0_5_841)">
        <path d="M5.5802 1.59319V36.4068C5.56761 36.8154 5.71811 37.2124 5.99882 37.5109C6.27952 37.8094 6.6676 37.9853 7.07824 38H30.5036C30.9142 37.9853 31.3023 37.8094 31.583 37.5109C31.8637 37.2124 32.0142 36.8154 32.0016 36.4068V11.9018L23.762 0H7.07824C6.6676 0.0147288 6.27952 0.190578 5.99882 0.489114C5.71811 0.78765 5.56761 1.18459 5.5802 1.59319Z" fill="#F6F6FA" />
        <path d="M23.8801 0.0147095V9.43621C23.8801 9.82593 24.0357 10.1997 24.3127 10.4753C24.5897 10.7508 24.9654 10.9057 25.3572 10.9057H31.9651L23.8801 0.0147095Z" fill="#CFD0D1" />
        <path d="M21.5642 23.034H1.55479C0.696105 23.034 0 23.7265 0 24.5808V31.7974C0 32.6516 0.696105 33.3442 1.55479 33.3442H21.5642C22.4229 33.3442 23.119 32.6516 23.119 31.7974V24.5808C23.119 23.7265 22.4229 23.034 21.5642 23.034Z" fill="#FF3717" />
        <path d="M7.61458 28.0449V29.6311H6.33032V25.2769H8.10201C8.44661 25.2585 8.79118 25.3136 9.11263 25.4385C9.34153 25.5418 9.53426 25.7106 9.66613 25.9234C9.79977 26.1452 9.86868 26.3996 9.86515 26.6582C9.87369 26.8456 9.84113 27.0326 9.76971 27.2062C9.69829 27.3798 9.58973 27.5359 9.45157 27.6636C9.14388 27.93 8.74413 28.067 8.33678 28.0456L7.61458 28.0449ZM7.61458 27.1122H8.0406C8.41686 27.1122 8.60188 26.9652 8.60188 26.6791C8.60188 26.3929 8.4324 26.2676 8.08491 26.2676H7.61225L7.61458 27.1122ZM10.3456 29.6311V25.2769H11.9618C12.2564 25.2549 12.552 25.302 12.825 25.4143C13.098 25.5266 13.3407 25.701 13.5337 25.9234C13.8814 26.3479 14.067 26.881 14.0577 27.4285C14.0888 28.0103 13.887 28.5806 13.4964 29.0147C13.3111 29.2196 13.0827 29.3813 12.8273 29.4883C12.572 29.5952 12.2961 29.6448 12.0193 29.6334L10.3456 29.6311ZM11.6298 28.6257H11.9618C12.0722 28.6238 12.1802 28.5929 12.2748 28.5361C12.3694 28.4793 12.4473 28.3987 12.5005 28.3024C12.6551 28.0377 12.7293 27.7342 12.7143 27.4285C12.72 27.1428 12.654 26.8603 12.5223 26.6064C12.4706 26.5029 12.3903 26.4162 12.291 26.3563C12.1916 26.2965 12.0772 26.266 11.961 26.2684H11.6291L11.6298 28.6257ZM17.2139 28.0008H15.8527V29.6311H14.6088V25.2769H17.6275V26.3125H15.8527V27.0472H17.2139V28.0008Z" fill="#F6F6FA" />
    </g>
    <defs>
        <clipPath id="clip0_5_841">
            <rect width="32" height="38" fill="white" />
        </clipPath>
    </defs>
</svg>
    