<svg xmlns="http://www.w3.org/2000/svg" width="19.933" height="14.404" viewBox="0 0 19.933 14.404">
  <path id="youtube_4_" data-name="youtube (4)" d="M9.964,14.9H9.958a52.83,52.83,0,0,1-7.425-.46A3.081,3.081,0,0,1,.366,12.278,22.609,22.609,0,0,1,0,7.721,23.035,23.035,0,0,1,.365,3.13v0A3.146,3.146,0,0,1,2.531.945l.008,0A54.781,54.781,0,0,1,9.958.5h.011A52.645,52.645,0,0,1,17.4.96a3.08,3.08,0,0,1,2.165,2.163,21.934,21.934,0,0,1,.367,4.615,22.671,22.671,0,0,1-.365,4.55v0a3.081,3.081,0,0,1-2.169,2.166h0a54.828,54.828,0,0,1-7.42.443H9.964ZM1.87,3.529a22.275,22.275,0,0,0-.313,4.182v.021a20.931,20.931,0,0,0,.313,4.143A1.518,1.518,0,0,0,2.939,12.94a52.122,52.122,0,0,0,7.025.406,54.233,54.233,0,0,0,7.027-.392,1.519,1.519,0,0,0,1.067-1.065,21,21,0,0,0,.313-4.143c0-.008,0-.016,0-.025a20.272,20.272,0,0,0-.312-4.188v0a1.52,1.52,0,0,0-1.07-1.068,51.926,51.926,0,0,0-7.025-.406,54.307,54.307,0,0,0-7.025.391A1.562,1.562,0,0,0,1.87,3.529ZM18.81,12.09h0ZM7.979,10.855V4.548L13.429,7.7Zm0,0" transform="translate(0.002 -0.5)" fill="#fff"/>
</svg>
