<svg xmlns="http://www.w3.org/2000/svg" xmlns:xlink="http://www.w3.org/1999/xlink" width="374.374" height="391.673" viewBox="0 0 374.374 391.673"><defs><style>.a{fill:url(#a);}.b{fill:#fff;}.c{fill:#231f20;}.d{fill:#d1d3d4;}.e{fill:#68e1fd;}</style><linearGradient id="a" x1="0.5" x2="0.5" y2="1" gradientUnits="objectBoundingBox"><stop offset="0" stop-color="#000d62"/><stop offset="1" stop-color="#0090d2"/></linearGradient></defs><g transform="translate(-13.14 -57.887)"><path class="a" d="M140.969,0h39.839c77.855,0,132.243,31.015,132.243,101.9S219.232,273.58,140.969,283.548,0,220.074,0,141.774,63.114,0,140.969,0Z" transform="matrix(-0.342, -0.94, 0.94, -0.342, 120.21, 449.35)"/><g transform="translate(-12.334 185.84)"><path class="b" d="M120.1,237.86,76.56,214c10-15.28,10.76-24,12.47-36.14,5.49-38.84,44-63.63,73.95-84.06a88.628,88.628,0,0,1,7.83-4.93c3.19-1.71,12-7,14.35-2.11,2.23,4.69-3.3,13.23-6.06,16.66a68.24,68.24,0,0,1,6-7.73,5.56,5.56,0,0,1,2.7-1.94c2-.46,3.94,1.46,4.25,3.49s-.54,4.06-1.48,5.9a57.579,57.579,0,0,1-8.29,12.22c2.2-2.48,10.33-11.82,10.16-2.37a22.59,22.59,0,0,1-6.91,15.75,41.322,41.322,0,0,1,6-4.41,2.76,2.76,0,0,1,2.16-.56,2.59,2.59,0,0,1,1.45,2.09c1.36,6.06-2,10.39-4.32,15.57-1.79,4-2.84,7.83-5.13,11.72-8.27,14.06-16.88,23.82-26.35,37.11C157,193.68,120.23,237.92,120.1,237.86Z"/><path class="c" d="M120.05,238.36a.55.55,0,0,1-.17-.05h0L76.32,214.47a.51.51,0,0,1-.24-.32.47.47,0,0,1,.07-.4c9.38-14.3,10.58-22.94,12.1-33.88l.29-2.05c5.31-37.56,41.54-62.21,70.66-82l3.5-2.39a85.539,85.539,0,0,1,7.88-5l.7-.38c3-1.64,8.56-4.68,12-3.56a3.74,3.74,0,0,1,2.31,2.06c1.21,2.53.35,5.94-1.07,9l.22-.25a6,6,0,0,1,3-2.09,3.53,3.53,0,0,1,2.78.59,5,5,0,0,1,2.08,3.32c.33,2.16-.53,4.25-1.52,6.2a58.5,58.5,0,0,1-3.8,6.44c1.52-1.13,2.94-1.75,4-1.32S193,110.45,193,113a23,23,0,0,1-4,12.42c.75-.52,1.52-1,2.31-1.49a3.17,3.17,0,0,1,2.56-.61,3,3,0,0,1,1.79,2.46c1.11,5-.8,8.74-2.82,12.74-.52,1-1,2.07-1.53,3.15-.63,1.4-1.17,2.81-1.7,4.17a49.781,49.781,0,0,1-3.46,7.59c-5.5,9.36-11.13,16.78-17.09,24.65-3,3.95-6.1,8-9.28,12.5-1.53,2.15-16.1,19.76-20.53,25.11-4.76,5.73-9.44,11.37-12.95,15.56C121.14,237.48,120.4,238.36,120.05,238.36ZM77.28,213.85,120,237.23c3-3.6,36.29-43.4,39-47.23,3.19-4.48,6.3-8.57,9.3-12.53,5.94-7.84,11.56-15.24,17-24.55a49.061,49.061,0,0,0,3.39-7.45c.53-1.37,1.08-2.78,1.72-4.21.48-1.1,1-2.16,1.54-3.19,1.94-3.83,3.77-7.45,2.74-12.07-.15-.68-.47-1.53-1.1-1.72a2.32,2.32,0,0,0-1.76.51,40.371,40.371,0,0,0-6,4.36.5.5,0,0,1-.7,0,.51.51,0,0,1,0-.7A22,22,0,0,0,192,113c0-2.05-.32-3.28-1-3.56-1.33-.52-4.08,1.56-8.15,6.17l-.08.09h0a.5.5,0,1,1-.74-.66A57.57,57.57,0,0,0,190.16,103c.91-1.8,1.71-3.72,1.42-5.6a4,4,0,0,0-1.66-2.64,2.48,2.48,0,0,0-2-.44,5.09,5.09,0,0,0-2.43,1.78c-1.28,1.42-2.51,2.89-3.67,4.42-1.21,1.86-2.23,3.15-2.36,3.3a.5.5,0,0,1-.8-.6c.79-1.17,1.61-2.32,2.47-3.44,2.6-4,5.11-9.47,3.56-12.73A2.77,2.77,0,0,0,183,85.47c-3.05-1-8.57,2-11.23,3.48l-.71.39a85.6,85.6,0,0,0-7.79,4.9l-3.5,2.38c-28.95,19.7-65,44.22-70.23,81.34l-.29,2C87.72,191,86.51,199.62,77.28,213.85Z"/><path class="c" d="M130.5,263.18l6.19-37.54S78.91,202.87,78,202.36c-.72-.38-21.13,60.82-21.13,60.82Z"/><path class="c" d="M130.5,263.68H56.83a.5.5,0,0,1-.47-.66c20.23-60.65,21.11-61,21.4-61.12a.54.54,0,0,1,.43,0c.94.47,38.8,15.42,58.68,23.26a.49.49,0,0,1,.31.54L131,263.26A.5.5,0,0,1,130.5,263.68Zm-73-1h72.54L136.13,226c-5.17-2-52.93-20.87-58-23-1.71,3.61-13.02,36.94-20.6,59.68Z"/><rect class="c" width="99.21" height="168.85" rx="6.67" transform="matrix(0.957, -0.291, 0.291, 0.957, 86.428, 64.001)"/><path class="c" d="M140,224.42a7.17,7.17,0,0,1-6.86-5.088L87.89,70.54a7.17,7.17,0,0,1,4.77-9l82.17-25a7.16,7.16,0,0,1,8.94,4.77L229,190.21a7.17,7.17,0,0,1-4.78,8.94h0l-82.16,25A7.14,7.14,0,0,1,140,224.42Zm37-187.1a6.19,6.19,0,0,0-1.8.27L93,62.55a6.17,6.17,0,0,0-4.11,7.7L134,219a6.18,6.18,0,0,0,7.7,4.11l82.16-25A6.17,6.17,0,0,0,228,190.5L182.82,41.7a6.18,6.18,0,0,0-5.9-4.38Zm47.13,161.35Z"/><rect class="b" width="88.79" height="132.51" transform="matrix(0.957, -0.291, 0.291, 0.957, 95.568, 75.459)"/><path class="c" d="M134.08,202.75a.46.46,0,0,1-.23-.06.48.48,0,0,1-.25-.29L95.09,75.61a.46.46,0,0,1,0-.38.49.49,0,0,1,.29-.24l85-25.81a.5.5,0,0,1,.62.33L219.52,176.3a.5.5,0,0,1-.34.63l-85,25.8A.391.391,0,0,1,134.08,202.75ZM96.19,75.8l38.22,125.83,84-25.52L180.19,50.28Z"/><path class="d" d="M173.49,207.57a3.72,3.72,0,0,1-3.55-2.62L168.75,201a3.71,3.71,0,0,1,2.46-4.62l15.5-4.7a3.69,3.69,0,0,1,4.62,2.46l1.19,4a3.69,3.69,0,0,1-2.46,4.62l-15.5,4.7a3.61,3.61,0,0,1-1.07.11Zm14.3-15.06a2.661,2.661,0,0,0-.79.12l-15.5,4.71a2.71,2.71,0,0,0-1.8,3.37l1.2,3.95a2.71,2.71,0,0,0,3.37,1.8l15.5-4.71h0a2.69,2.69,0,0,0,1.8-3.37l-1.2-3.95A2.7,2.7,0,0,0,187.79,192.51Z"/><path class="d" d="M117.05,63.06a.5.5,0,0,1-.48-.35.51.51,0,0,1,.33-.63l26.9-8.17a.522.522,0,0,1,.3,1L117.19,63Z"/><path class="d" d="M147.72,53.74a.51.51,0,0,1-.48-.35.5.5,0,0,1,.34-.63l3.61-1.09a.5.5,0,1,1,.29.95l-3.61,1.1a.39.39,0,0,1-.15.02Z"/><rect class="e" width="59.67" height="59.67" transform="matrix(0.957, -0.291, 0.291, 0.957, 110.477, 105.952)"/><path class="c" d="M127.82,163.55a.5.5,0,0,1-.48-.35L110,106.1a.49.49,0,0,1,.33-.62l57.09-17.34a.51.51,0,0,1,.63.33l17.34,57.09a.51.51,0,0,1-.33.63L128,163.53A.36.36,0,0,1,127.82,163.55ZM111.1,106.29l17.05,56.14,56.14-17.05L167.23,89.24Z"/><rect class="b" width="59.67" height="15.17" transform="matrix(0.957, -0.291, 0.291, 0.957, 127.822, 163.035)"/><path class="c" d="M132.22,178.06A.59.59,0,0,1,132,178a.48.48,0,0,1-.24-.3l-4.41-14.51a.51.51,0,0,1,.33-.63l57.1-17.34a.5.5,0,0,1,.62.33l4.41,14.52a.51.51,0,0,1,0,.38.52.52,0,0,1-.3.24L132.37,178a.39.39,0,0,1-.15.06Zm-3.78-14.67,4.12,13.55,56.14-17.05-4.12-13.56Z"/><path class="d" d="M135.66,165.79a.5.5,0,0,1-.48-.35.51.51,0,0,1,.33-.63l44-13.36a.522.522,0,0,1,.3,1l-44,13.36Z"/><path class="d" d="M137.2,170.87a.49.49,0,0,1-.48-.36.5.5,0,0,1,.33-.62l41.1-12.49a.521.521,0,0,1,.29,1l-41.1,12.48a.35.35,0,0,1-.14-.01Z"/><rect class="e" width="59.84" height="59.84" transform="translate(171.742 87.862) rotate(-16.809)"/><path class="c" d="M188.57,145.1a.46.46,0,0,1-.23-.06.5.5,0,0,1-.25-.3L170.75,87.65a.5.5,0,0,1,.33-.62l57.1-17.35a.56.56,0,0,1,.38,0,.52.52,0,0,1,.24.3l17.34,57.09a.5.5,0,0,1-.33.62l-57.09,17.35ZM171.85,87.84,188.9,144l56.14-17L228,70.78Z"/><rect class="b" width="59.84" height="15.213" transform="translate(189.084 145.154) rotate(-16.809)"/><path class="c" d="M193,159.61a.53.53,0,0,1-.24-.06.52.52,0,0,1-.24-.3l-4.41-14.51a.5.5,0,0,1,.34-.62l57.09-17.34a.5.5,0,0,1,.62.33l4.41,14.51a.46.46,0,0,1,0,.38.48.48,0,0,1-.29.25l-57.1,17.34Zm-3.79-14.68,4.12,13.56,56.14-17.06-4.12-13.55Z"/><path class="d" d="M196.41,147.34a.51.51,0,0,1-.48-.36.5.5,0,0,1,.34-.62l44-13.36a.5.5,0,0,1,.29.95l-44,13.36A.4.4,0,0,1,196.41,147.34Z"/><path class="d" d="M198,152.41a.51.51,0,0,1-.48-.35.5.5,0,0,1,.34-.63l35.41-10.75a.5.5,0,0,1,.29.95L198.1,152.39Z"/><rect class="e" width="59.67" height="59.67" transform="matrix(0.957, -0.291, 0.291, 0.957, 231.989, 69.033)"/><path class="c" d="M249.33,126.64a.5.5,0,0,1-.24-.06.46.46,0,0,1-.24-.29L231.5,69.19a.5.5,0,0,1,.34-.62l57.09-17.34a.46.46,0,0,1,.38,0,.48.48,0,0,1,.25.29l17.34,57.1a.5.5,0,0,1-.33.62l-57.1,17.34A.34.34,0,0,1,249.33,126.64ZM232.61,69.38l17,56.14,56.14-17L288.74,52.33Z"/><rect class="b" width="59.67" height="15.17" transform="matrix(0.957, -0.291, 0.291, 0.957, 249.325, 126.126)"/><path class="c" d="M253.73,141.15a.59.59,0,0,1-.23-.05.53.53,0,0,1-.25-.3l-4.4-14.51a.5.5,0,0,1,.33-.62l57.09-17.35a.5.5,0,0,1,.63.34l4.41,14.51a.56.56,0,0,1,0,.38.52.52,0,0,1-.3.24l-57.09,17.34A.39.39,0,0,1,253.73,141.15ZM250,126.48,254.07,140l56.13-17-4.11-13.56Z"/><path class="d" d="M257.17,128.88a.5.5,0,0,1-.48-.35.51.51,0,0,1,.33-.63l44-13.36a.5.5,0,1,1,.29.96l-44,13.36Z"/><path class="d" d="M258.71,134a.49.49,0,0,1-.48-.36.5.5,0,0,1,.33-.62l32.18-9.77a.48.48,0,0,1,.62.33.5.5,0,0,1-.33.62l-32.18,9.78Z"/><circle class="d" cx="5.89" cy="5.89" r="5.89" transform="translate(107 83.36)"/><path class="d" d="M122.75,81.83a.5.5,0,0,1-.48-.35.51.51,0,0,1,.33-.63l53.91-16.37a.5.5,0,0,1,.62.33.51.51,0,0,1-.33.63L122.89,81.81Z"/><path class="d" d="M124.12,86.34a.506.506,0,0,1-.15-1L177.88,69a.5.5,0,0,1,.62.33.51.51,0,0,1-.33.63L124.26,86.32Z"/><path class="d" d="M125.49,90.85a.5.5,0,0,1-.48-.35.51.51,0,0,1,.33-.63L174.17,75a.49.49,0,0,1,.62.34.48.48,0,0,1-.33.62L125.63,90.83a.34.34,0,0,1-.14.02Z"/><path class="d" d="M137.06,189.58a.5.5,0,0,1-.48-.35.51.51,0,0,1,.33-.63l72.18-21.92a.5.5,0,0,1,.62.33.51.51,0,0,1-.33.63L137.2,189.56A.36.36,0,0,1,137.06,189.58Z"/><path class="b" d="M322.37,209.66s-23.05-57-38.53-77.52c-2.11-2.8-5-3.44-7.15-2.2-2.53,1.46-3,6.88-3,6.88s-6.12-4.06-9.22-3.51-3.76,5.28-3.76,5.28-6.65-2.65-9.6-.45-3.31,6.52-3.31,6.52-33.9-30.71-37.68-33.35-11.15,1.13-8,6.39c2,3.27,18.86,22.19,24.34,28.21s18.07,22.21,19.29,26.82,2.18,9.81-7.14,9.83-17.7,1.09-22,4.21-7.3,8.07-5.33,9.2,31.72,2.2,43.85,8,26.72,26.07,26.72,26.07Z"/><path class="c" d="M281.89,230.57a.49.49,0,0,1-.4-.2c-.15-.2-14.66-20.21-26.54-25.91-8.27-4-25.09-5.75-35.14-6.8-5.43-.57-8.06-.86-8.74-1.25a1.74,1.74,0,0,1-.86-1.5c-.11-2.17,2.65-6,6.15-8.55,3.91-2.84,11.41-4.29,22.28-4.3,3.33,0,5.55-.71,6.6-2.07,1.34-1.75.77-4.48.06-7.13-1.18-4.43-13.48-20.34-19.18-26.61s-22.41-25-24.4-28.29a4.69,4.69,0,0,1,.73-6.19c1.89-1.77,5.48-2.61,8-.87,3.51,2.45,32.07,28.26,37,32.76a9.8,9.8,0,0,1,3.37-5.92c2.65-2,7.8-.42,9.52.18.3-1.37,1.31-4.61,4-5.1s7.19,2.1,8.91,3.15c.24-1.63,1-5.24,3.14-6.47,2.51-1.45,5.64-.51,7.79,2.34,15.34,20.34,38.36,77.07,38.59,77.64a.49.49,0,0,1-.23.63l-40.48,20.41a.46.46,0,0,1-.17.05ZM207.21,111a6.17,6.17,0,0,0-4.08,1.55,3.67,3.67,0,0,0-.55,5c1.92,3.19,18.71,22,24.28,28.13,5.12,5.63,18.1,22.1,19.41,27,.77,2.89,1.38,5.89-.23,8-1.27,1.65-3.69,2.45-7.4,2.46-10.65,0-17.95,1.4-21.69,4.11-3.49,2.53-5.83,6.08-5.74,7.68a.75.75,0,0,0,.36.69c.52.3,4.32.7,8.34,1.12,10.11,1.06,27,2.84,35.48,6.89,11.37,5.47,24.61,23.1,26.66,25.89l39.68-20c-2.15-5.29-23.73-57.69-38.29-77-1.83-2.43-4.44-3.25-6.49-2.07-1.9,1.09-2.62,5-2.75,6.49a.49.49,0,0,1-.77.37c-.06,0-6-3.93-8.85-3.42-2.71.48-3.35,4.81-3.36,4.85a.5.5,0,0,1-.24.37.52.52,0,0,1-.44,0c-.06,0-6.42-2.52-9.12-.52s-3.1,6.12-3.11,6.16a.49.49,0,0,1-.31.43.5.5,0,0,1-.52-.1c-.34-.31-33.92-30.72-37.63-33.31A4.56,4.56,0,0,0,207.21,111Z"/><path class="c" d="M343.17,263.18c-5.17-15.74-21-66.29-21.72-66S271.26,221,271.26,221l3,42.22Z"/><path class="c" d="M343.17,263.68H274.25a.5.5,0,0,1-.5-.47l-3-42.21a.51.51,0,0,1,.29-.49c2-.95,49.31-23.34,50.2-23.74a.56.56,0,0,1,.42,0c.7.31,2.92,6.69,15.45,46,2.7,8.45,5,15.74,6.52,20.29a.5.5,0,0,1-.47.66Zm-68.46-1h67.77c-1.5-4.58-3.74-11.59-6.31-19.65-5.71-17.87-13.44-42.08-14.89-45.17-4.45,2.09-45.5,21.51-49.49,23.41Z"/><path class="b" d="M85.51,196.07s8.95-67.27,16.68-74.49c9.18-8.56,17.54-14.38,19.07-9.48s3,13.05-9.58,22.23l1.83,16.32s12.35,8.53,5.92,35.46"/><path class="c" d="M85.51,196.53h-.06a.46.46,0,0,1-.39-.52c.36-2.75,9.06-67.52,16.82-74.76,8.87-8.28,14.89-12.09,17.89-11.29a2.74,2.74,0,0,1,1.93,2c3.48,11.13-3.21,17.92-9.54,22.59l1.78,15.85c1.56,1.19,12,10.31,5.93,35.81A.448.448,0,1,1,119,186c6.28-26.32-5.62-34.89-5.74-35a.43.43,0,0,1-.19-.32l-1.84-16.32a.43.43,0,0,1,.19-.42c11.69-8.56,11.17-16.11,9.42-21.74a1.86,1.86,0,0,0-1.3-1.39c-2.6-.68-8.64,3.25-17,11.08-7.52,7-16.45,73.54-16.54,74.21a.46.46,0,0,1-.49.43Z"/></g></g></svg>