<svg xmlns="http://www.w3.org/2000/svg" width="127" height="127" viewBox="0 0 127 127"><defs><style>.a{fill:#f6f6f6;}.b{fill:#000236;}</style></defs><g transform="translate(-135 -239)"><circle class="a" cx="63.5" cy="63.5" r="63.5" transform="translate(135 239)"/><g transform="translate(174 277)"><g transform="translate(0 25.473)"><g transform="translate(0)"><path class="b" d="M35.614,257.323a24.314,24.314,0,0,0-24.286,24.286,1.056,1.056,0,1,0,2.112,0,22.175,22.175,0,0,1,44.349,0,1.056,1.056,0,1,0,2.112,0A24.313,24.313,0,0,0,35.614,257.323Z" transform="translate(-11.328 -257.323)"/></g></g><g transform="translate(12.671 0)"><path class="b" d="M150.943,0a11.615,11.615,0,1,0,11.615,11.615A11.629,11.629,0,0,0,150.943,0Zm0,21.119a9.5,9.5,0,1,1,9.5-9.5A9.515,9.515,0,0,1,150.943,21.119Z" transform="translate(-139.328)"/></g></g></g></svg>