<svg id="bold" enable-background="new 0 0 32 32" height="512" viewBox="0 0 32 32" width="512" xmlns="http://www.w3.org/2000/svg"><path d="m26 32h-20c-3.314 0-6-2.686-6-6v-20c0-3.314 2.686-6 6-6h20c3.314 0 6 2.686 6 6v20c0 3.314-2.686 6-6 6z" fill="#ffe6e2"/><path d="m23.334 17.015h-2v-1.167c0-.435-.065-.854-.181-1.252l1.904-1.374c.299-.215.366-.632.151-.931s-.632-.366-.931-.151l-1.695 1.223c-.346-.52-.797-.962-1.322-1.299.046-.178.074-.362.074-.549 0-.894-.544-1.662-1.318-1.993v-.78c0-.368-.299-.667-.667-.667s-.667.299-.667.667v.606h-1.333v-.605c0-.368-.299-.667-.667-.667s-.667.299-.667.667v.765c-.265.107-.508.266-.715.474-.408.408-.633.953-.633 1.534 0 .187.027.371.074.549-.525.338-.977.78-1.322 1.299l-1.695-1.223c-.298-.215-.715-.148-.931.151s-.148.715.151.931l1.904 1.374c-.116.398-.181.817-.181 1.252v1.167h-2c-.369-.001-.667.298-.667.666s.299.667.667.667h2v1.167c0 .435.065.854.181 1.252l-1.904 1.374c-.299.215-.366.632-.151.931.13.181.334.277.541.277.135 0 .271-.041.389-.126l1.695-1.224c.807 1.213 2.185 2.015 3.749 2.015h1.667c1.563 0 2.942-.802 3.749-2.015l1.695 1.223c.118.085.254.126.389.126.207 0 .411-.096.541-.277.216-.299.148-.715-.151-.931l-1.904-1.374c.116-.398.181-.817.181-1.252v-1.167h2c.368 0 .667-.299.667-.667s-.299-.666-.667-.666zm-6.667 3c0 .368-.299.667-.667.667s-.667-.299-.667-.667v-4.667c0-.368.299-.667.667-.667s.667.299.667.667z" fill="#fc573b"/></svg>