<svg id="bold" enable-background="new 0 0 32 32" height="512" viewBox="0 0 32 32" width="512" xmlns="http://www.w3.org/2000/svg"><path d="m26 32h-20c-3.314 0-6-2.686-6-6v-20c0-3.314 2.686-6 6-6h20c3.314 0 6 2.686 6 6v20c0 3.314-2.686 6-6 6z" fill="#f5e6fe"/><path d="m19.12 10.02-5.334-2c-.08-.027-.16-.027-.24 0l-5.334 2c-.126.047-.212.173-.212.313v4.287c0 6.08 5.54 7.36 5.594 7.373.026.007.046.007.073.007s.047 0 .073-.007c.027-.007 1.193-.273 2.46-1.153.093-.18.213-.347.36-.493-.44-.6-.533-1.427-.153-2.127.613-1.14 1.64-1.973 2.84-2.333.053-.393.087-.82.087-1.267v-4.287c-.001-.14-.087-.266-.214-.313z" fill="#be63f9"/><g fill="#d9a4fc"><path d="m23.484 21.254c-.324-.175-.728-.055-.904.269-.382.706-1.116 1.144-1.914 1.144-.407 0-.793-.123-1.131-.329l.317-.317c.143-.143.186-.358.108-.545-.077-.187-.26-.309-.462-.309h-1.667c-.276 0-.5.224-.5.5v1.667c0 .202.122.384.309.462.062.026.127.038.191.038.13 0 .258-.051.354-.146l.382-.382c.601.446 1.334.694 2.1.694 1.288 0 2.471-.706 3.086-1.843.175-.323.055-.728-.269-.903z"/><path d="m23.692 17.205c-.187-.077-.402-.035-.545.108l-.382.382c-.599-.447-1.332-.695-2.098-.695-1.29 0-2.474.709-3.087 1.851-.174.325-.053.729.271.903.101.054.209.079.315.079.238 0 .467-.127.588-.351.381-.709 1.114-1.149 1.913-1.149.407 0 .793.123 1.131.329l-.318.318c-.143.143-.186.358-.108.545.077.187.26.309.462.309h1.666c.276 0 .5-.224.5-.5v-1.667c0-.202-.121-.385-.308-.462z"/></g></svg>