<svg width="433" height="496" viewBox="0 0 433 496" fill="none" xmlns="http://www.w3.org/2000/svg">
    <path d="M0.541138 11.3636V59.4332C0.541138 65.3743 5.41146 69.6952 10.8229 69.6952L115.805 69.1551L116.888 394.84L150.439 366.214L186.155 394.84L187.778 0.561497L10.8229 1.1016C5.41146 1.1016 0.541138 5.42246 0.541138 11.3636Z" fill="#DA3027" />
    <path d="M11.3641 281.417H116.347V213.364H11.3641C5.95259 213.364 1.62341 217.684 1.62341 223.086V271.695C1.62341 277.096 5.95259 281.417 11.3641 281.417Z" fill="black" />
    <path d="M394.496 253.332C388.544 249.551 388.002 240.909 393.414 237.128C416.683 220.385 428.589 192.84 428.589 155.032V118.845C428.589 40.5294 385.297 1.1016 298.172 1.1016H187.778L225.117 70.2353V69.6952C225.117 69.6952 242.975 69.6952 262.997 69.6952H264.621C274.903 69.6952 285.726 70.2353 294.384 70.2353H294.925C299.796 70.2353 304.125 70.7754 307.913 71.3155C308.454 71.3155 308.995 71.3155 309.536 71.3155C337.676 75.6364 351.204 92.9198 351.204 123.166V160.433C351.204 195.54 331.723 213.364 292.219 213.364H258.668H186.696V281.417H279.232H296.549C335.511 281.417 354.992 299.241 354.992 334.348V374.856C354.992 409.963 336.052 427.786 298.713 427.786H279.232H11.3641C5.95259 427.786 1.62341 432.107 1.62341 437.508V486.118C1.62341 491.519 5.95259 495.84 11.3641 495.84H302.501C389.085 496.92 432.918 457.492 432.918 379.176V337.048C432.918 297.08 419.93 268.995 394.496 253.332Z" fill="black" />
</svg>
    