<svg xmlns="http://www.w3.org/2000/svg" width="236" height="236" viewBox="0 0 236 236"><defs><style>.a{fill:#1c1c1c;}.b{fill:#fff;}</style></defs><g transform="translate(-830 -1394)"><rect class="a" width="236" height="236" rx="27.479" transform="translate(830 1394)"/><g transform="translate(2 3.02)"><g transform="translate(874.862 1458.98)"><path class="b" d="M899.991,1477.692c-1.014-4.948-5.4-8.525-11.148-8.525-7.692,0-12.49,5.9-12.49,15.143s4.769,15.113,12.49,15.113c5.812,0,10.1-3.368,11.089-8.228h1.49c-1.014,5.693-5.9,9.628-12.579,9.628-8.555,0-13.981-6.379-13.981-16.513,0-10.105,5.456-16.514,13.981-16.514,6.557,0,11.6,4.2,12.638,9.9Z" transform="translate(-874.862 -1455.455)"/><path class="b" d="M911.029,1453.98h1.461v44.891h-1.461Z" transform="translate(-878.723 -1453.98)"/><path class="b" d="M920,1491.821c0-5.455,3.876-8.525,11.328-9.122l11.6-.894v-2.891c0-6.08-3.636-9.747-9.688-9.747-5.992,0-9.836,3.071-10.672,8.436h-1.4c.685-6.08,5.306-9.807,12.072-9.807,6.885,0,11.148,4.233,11.148,11.03v21.521h-1.46v-7.3h-.03c-1.55,4.589-6.557,7.779-12.28,7.779C924.386,1500.823,920,1497.1,920,1491.821Zm22.923-3.279v-5.425l-11.357.865c-6.558.506-10.075,3.219-10.075,7.839,0,4.412,3.905,7.631,9.21,7.631C937.442,1499.452,942.927,1494.533,942.927,1488.542Z" transform="translate(-879.681 -1455.455)"/><path class="b" d="M964.8,1467.8c6.438,0,10.7,3.786,11.267,9.777h-1.431c-.536-4.888-4.084-8.406-9.836-8.406-4.978,0-9.331,2.862-9.331,7.064,0,3.458,2.266,5.158,7.124,6.289l4.978,1.192c6.35,1.551,9,3.965,9,8.317,0,5.246-4.888,8.793-11.654,8.793-6.886,0-11.655-4.322-11.983-9.538h1.49c.387,4.5,4.68,8.167,10.463,8.167,5.634,0,10.194-2.921,10.194-7.333,0-3.667-2.265-5.723-7.959-7.064l-5.037-1.163c-5.366-1.281-8.078-3.517-8.078-7.631C954.009,1471.254,958.867,1467.8,964.8,1467.8Z" transform="translate(-883.197 -1455.455)"/><path class="b" d="M994.993,1467.8c6.438,0,10.7,3.786,11.267,9.777h-1.43c-.537-4.888-4.084-8.406-9.837-8.406-4.978,0-9.33,2.862-9.33,7.064,0,3.458,2.265,5.158,7.124,6.289l4.979,1.192c6.349,1.551,9,3.965,9,8.317,0,5.246-4.889,8.793-11.655,8.793-6.886,0-11.655-4.322-11.983-9.538h1.49c.387,4.5,4.68,8.167,10.463,8.167,5.633,0,10.194-2.921,10.194-7.333,0-3.667-2.265-5.723-7.959-7.064l-5.038-1.163c-5.366-1.281-8.078-3.517-8.078-7.631C984.2,1471.254,989.062,1467.8,994.993,1467.8Z" transform="translate(-886.421 -1455.455)"/></g><g transform="translate(874.862 1510.429)"><path class="b" d="M878.53,1519.678h6.17v5.484h.119a9.584,9.584,0,0,1,9.211-5.843c4.5,0,7.751,2.265,9.062,6.29h.149a10.666,10.666,0,0,1,10.135-6.29c6.379,0,10.552,4.2,10.552,10.672v22.058h-6.438v-20.508c0-4.233-2.3-6.678-6.32-6.678-3.964,0-6.766,2.951-6.766,7.095v20.091h-6.348v-21.045c0-3.756-2.414-6.141-6.2-6.141-3.994,0-6.857,3.1-6.857,7.333v19.852H878.53Z" transform="translate(-878.53 -1512.405)"/><path class="b" d="M934.982,1542.773c0-5.664,4.382-8.943,12.37-9.45l8.734-.506v-2.5c0-3.7-2.474-5.723-6.8-5.723-3.518,0-6.081,1.818-6.647,4.619h-6.052c.179-5.723,5.6-9.955,12.877-9.955,7.9,0,13,4.173,13,10.582v22.207H956.3v-5.4h-.149c-1.788,3.517-5.813,5.723-10.225,5.723C939.453,1552.371,934.982,1548.556,934.982,1542.773Zm21.1-2.891v-2.534l-7.87.536c-4.412.269-6.707,1.908-6.707,4.77,0,2.773,2.414,4.561,6.141,4.561C952.45,1547.214,956.087,1544.143,956.087,1539.882Z" transform="translate(-884.557 -1512.397)"/><path class="b" d="M981.091,1511.578v7.274h6.2v5.1h-6.2v18.093c0,2.8,1.252,4.113,3.964,4.113a21.023,21.023,0,0,0,2.206-.149v5.1a18.265,18.265,0,0,1-3.637.328c-6.468,0-8.972-2.473-8.972-8.733v-18.749h-4.472v-5.1h4.472v-7.274Z" transform="translate(-888.315 -1511.578)"/><path class="b" d="M1022.092,1542.564c-.925,5.812-6.618,9.867-13.892,9.867-9.389,0-15.231-6.32-15.231-16.454s5.9-16.722,14.964-16.722c8.882,0,14.486,6.171,14.486,15.977v2.265H999.5v.387c0,5.605,3.518,9.3,8.823,9.3,3.756,0,6.707-1.787,7.6-4.62Zm-22.565-9.658h16.424c-.149-5.038-3.338-8.377-8.048-8.377C1003.253,1524.53,999.885,1527.928,999.527,1532.906Z" transform="translate(-890.748 -1512.397)"/></g><ellipse class="b" cx="5.385" cy="5.385" rx="5.385" ry="5.385" transform="translate(1011.562 1538.391)"/></g></g></svg>