<svg width="91" height="29" viewBox="0 0 91 29" fill="none" xmlns="http://www.w3.org/2000/svg">
    <path d="M19.4834 1.97H20.3334V2.67H20.3534C20.4934 2.39 20.7134 2.18 21.0134 2.05C21.3134 1.92 21.6434 1.85 22.0034 1.85C22.4034 1.85 22.7434 1.93 23.0434 2.07C23.3434 2.22 23.5834 2.42 23.7834 2.67C23.9834 2.92 24.1334 3.21 24.2334 3.53C24.3334 3.86 24.3834 4.21 24.3834 4.57C24.3834 4.94 24.3334 5.29 24.2334 5.61C24.1334 5.94 23.9934 6.23 23.7934 6.47C23.5934 6.71 23.3534 6.9 23.0534 7.04C22.7534 7.18 22.4134 7.25 22.0234 7.25C21.8934 7.25 21.7534 7.24 21.5934 7.21C21.4334 7.19 21.2834 7.14 21.1334 7.08C20.9734 7.02 20.8334 6.94 20.6934 6.84C20.5534 6.74 20.4434 6.61 20.3534 6.45H20.3334V9.11H19.4834V1.97ZM23.4834 4.51C23.4834 4.27 23.4434 4.04 23.3834 3.81C23.3234 3.58 23.2234 3.37 23.0934 3.19C22.9634 3.02 22.7934 2.87 22.5934 2.76C22.3934 2.66 22.1534 2.61 21.8834 2.6C21.5934 2.6 21.3534 2.66 21.1534 2.77C20.9534 2.89 20.7834 3.04 20.6634 3.22C20.5334 3.4 20.4434 3.61 20.3834 3.84C20.3234 4.08 20.3034 4.31 20.3034 4.55C20.3034 4.81 20.3334 5.05 20.3934 5.29C20.4534 5.53 20.5434 5.73 20.6734 5.91C20.8034 6.09 20.9734 6.24 21.1834 6.35C21.3834 6.46 21.6334 6.51 21.9334 6.51C22.2234 6.51 22.4634 6.46 22.6634 6.34C22.8634 6.23 23.0134 6.08 23.1434 5.89C23.2634 5.71 23.3434 5.49 23.4034 5.25C23.4534 5.01 23.4834 4.77 23.4834 4.51Z" fill="#ABABAB" />
    <path d="M26.0011 4.56C26.0011 4.88 26.0411 5.16 26.1211 5.4C26.2011 5.64 26.3211 5.85 26.4711 6.01C26.6111 6.17 26.7811 6.3 26.9811 6.38C27.1811 6.47 27.3911 6.51 27.6111 6.51C27.8311 6.51 28.0311 6.47 28.2311 6.38C28.4311 6.3 28.6011 6.17 28.7511 6.01C28.8911 5.85 29.0111 5.64 29.0911 5.4C29.1711 5.16 29.2211 4.88 29.2211 4.56C29.2211 4.25 29.1711 3.97 29.0911 3.73C29.0111 3.49 28.8911 3.28 28.7511 3.11C28.6011 2.95 28.4311 2.82 28.2311 2.73C28.0311 2.65 27.8311 2.61 27.6111 2.6C27.3911 2.6 27.1811 2.65 26.9811 2.73C26.7811 2.82 26.6111 2.95 26.4711 3.11C26.3211 3.28 26.2011 3.49 26.1211 3.73C26.0411 3.97 26.0011 4.25 26.0011 4.56ZM25.1011 4.56C25.1011 4.18 25.1511 3.83 25.2611 3.5C25.3611 3.17 25.5211 2.88 25.7411 2.64C25.9511 2.4 26.2111 2.2 26.5311 2.06C26.8411 1.92 27.2011 1.85 27.6111 1.85C28.0211 1.85 28.3811 1.92 28.6911 2.06C29.0011 2.2 29.2611 2.4 29.4811 2.64C29.6911 2.88 29.8511 3.17 29.9611 3.5C30.0611 3.83 30.1211 4.18 30.1211 4.56C30.1211 4.94 30.0611 5.3 29.9611 5.62C29.8511 5.95 29.6911 6.24 29.4811 6.48C29.2611 6.72 29.0011 6.91 28.6911 7.05C28.3811 7.19 28.0211 7.25 27.6111 7.25C27.2011 7.25 26.8411 7.19 26.5311 7.05C26.2111 6.91 25.9511 6.72 25.7411 6.48C25.5211 6.24 25.3611 5.95 25.2611 5.62C25.1511 5.3 25.1011 4.94 25.1011 4.56Z" fill="#ABABAB" />
    <path d="M36.2433 7.14H35.3433L34.2933 3.03H34.2733L33.2333 7.14H32.3133L30.6533 1.97H31.5933L32.7633 6.2H32.7833L33.8233 1.97H34.7533L35.8333 6.2H35.8533L37.0133 1.97H37.8933L36.2433 7.14Z" fill="#ABABAB" />
    <path d="M42.2914 4.06C42.2714 3.86 42.2314 3.67 42.1514 3.49C42.0714 3.31 41.9714 3.16 41.8414 3.03C41.7114 2.9 41.5614 2.8 41.3814 2.72C41.2014 2.64 41.0114 2.61 40.8014 2.6C40.5814 2.6 40.3814 2.64 40.2014 2.72C40.0214 2.8 39.8714 2.9 39.7514 3.03C39.6214 3.17 39.5214 3.32 39.4514 3.5C39.3714 3.68 39.3314 3.86 39.3214 4.06H42.2914ZM43.1114 5.5C42.9914 6.08 42.7414 6.52 42.3614 6.81C41.9714 7.11 41.4814 7.25 40.9014 7.25C40.4814 7.25 40.1214 7.19 39.8214 7.05C39.5214 6.92 39.2614 6.73 39.0614 6.49C38.8514 6.25 38.6914 5.97 38.5914 5.63C38.4914 5.3 38.4314 4.94 38.4214 4.54C38.4214 4.15 38.4814 3.79 38.6014 3.46C38.7214 3.14 38.8814 2.85 39.1014 2.61C39.3214 2.37 39.5714 2.19 39.8714 2.05C40.1714 1.92 40.4914 1.86 40.8514 1.85C41.3114 1.85 41.6914 1.95 41.9914 2.14C42.2914 2.33 42.5414 2.57 42.7214 2.86C42.9014 3.16 43.0314 3.48 43.1014 3.82C43.1714 4.17 43.2014 4.5 43.1914 4.81H39.3214C39.3114 5.04 39.3414 5.26 39.4014 5.46C39.4614 5.66 39.5514 5.84 39.6914 6C39.8214 6.16 39.9914 6.28 40.2014 6.37C40.4014 6.47 40.6514 6.51 40.9314 6.51C41.2914 6.51 41.5814 6.43 41.8114 6.26C42.0414 6.1 42.1914 5.84 42.2714 5.5H43.1114Z" fill="#ABABAB" />
    <path d="M44.0425 1.97H44.8425V3.06H44.8625C45.0625 2.64 45.3225 2.33 45.6225 2.13C45.9225 1.93 46.3025 1.84 46.7625 1.85V2.75C46.4225 2.75 46.1325 2.8 45.8925 2.89C45.6525 2.99 45.4525 3.12 45.3125 3.3C45.1625 3.48 45.0525 3.7 44.9925 3.96C44.9225 4.22 44.8925 4.51 44.8925 4.84V7.14H44.0425V1.97Z" fill="#ABABAB" />
    <path d="M50.8168 4.06C50.7968 3.86 50.7568 3.67 50.6768 3.49C50.5968 3.31 50.4968 3.16 50.3668 3.03C50.2368 2.9 50.0868 2.8 49.9068 2.72C49.7268 2.64 49.5368 2.61 49.3268 2.6C49.1068 2.6 48.9068 2.64 48.7268 2.72C48.5468 2.8 48.3968 2.9 48.2768 3.03C48.1468 3.17 48.0468 3.32 47.9768 3.5C47.8968 3.68 47.8568 3.86 47.8468 4.06H50.8168ZM51.6368 5.5C51.5168 6.08 51.2668 6.52 50.8868 6.81C50.4968 7.11 50.0068 7.25 49.4268 7.25C49.0068 7.25 48.6468 7.19 48.3468 7.05C48.0468 6.92 47.7868 6.73 47.5868 6.49C47.3768 6.25 47.2168 5.97 47.1168 5.63C47.0168 5.3 46.9568 4.94 46.9468 4.54C46.9468 4.15 47.0068 3.79 47.1268 3.46C47.2468 3.14 47.4068 2.85 47.6268 2.61C47.8468 2.37 48.0968 2.19 48.3968 2.05C48.6968 1.92 49.0168 1.86 49.3768 1.85C49.8368 1.85 50.2168 1.95 50.5168 2.14C50.8168 2.33 51.0668 2.57 51.2468 2.86C51.4268 3.16 51.5568 3.48 51.6268 3.82C51.6968 4.17 51.7268 4.5 51.7168 4.81H47.8468C47.8368 5.04 47.8668 5.26 47.9268 5.46C47.9868 5.66 48.0768 5.84 48.2168 6C48.3468 6.16 48.5168 6.28 48.7268 6.37C48.9268 6.47 49.1768 6.51 49.4568 6.51C49.8168 6.51 50.1068 6.43 50.3368 6.26C50.5668 6.1 50.7168 5.84 50.7968 5.5H51.6368Z" fill="#ABABAB" />
    <path d="M53.2179 4.6C53.2179 4.84 53.2479 5.08 53.3079 5.31C53.3679 5.54 53.4679 5.74 53.5979 5.92C53.7279 6.1 53.8979 6.25 54.0979 6.35C54.2979 6.46 54.5379 6.51 54.8179 6.51C55.0979 6.51 55.3479 6.46 55.5479 6.34C55.7379 6.23 55.9079 6.08 56.0379 5.9C56.1579 5.72 56.2479 5.51 56.3079 5.27C56.3679 5.04 56.3879 4.8 56.3979 4.56C56.3979 4.31 56.3679 4.07 56.3079 3.83C56.2479 3.59 56.1479 3.38 56.0179 3.2C55.8879 3.02 55.7179 2.88 55.5179 2.77C55.3079 2.66 55.0579 2.6 54.7679 2.6C54.4779 2.6 54.2379 2.66 54.0379 2.77C53.8379 2.89 53.6779 3.04 53.5579 3.22C53.4379 3.41 53.3479 3.62 53.2979 3.86C53.2379 4.1 53.2179 4.35 53.2179 4.6ZM57.2179 7.14H56.3679V6.44H56.3479C56.2079 6.73 55.9879 6.94 55.6879 7.06C55.3879 7.19 55.0579 7.25 54.6979 7.25C54.2979 7.25 53.9479 7.18 53.6479 7.03C53.3479 6.89 53.1079 6.69 52.9079 6.44C52.7079 6.2 52.5679 5.91 52.4679 5.58C52.3679 5.26 52.3179 4.91 52.3179 4.54C52.3179 4.18 52.3579 3.83 52.4579 3.5C52.5579 3.18 52.6979 2.89 52.8979 2.65C53.0979 2.41 53.3379 2.21 53.6379 2.07C53.9379 1.93 54.2779 1.86 54.6779 1.85C54.8079 1.85 54.9479 1.87 55.1079 1.89C55.2579 1.92 55.4079 1.97 55.5679 2.03C55.7179 2.09 55.8579 2.18 55.9979 2.28C56.1379 2.38 56.2479 2.51 56.3479 2.66H56.3679V0H57.2179V7.14Z" fill="#ABABAB" />
    <path d="M61.3389 0H62.1889V2.67H62.2089C62.3489 2.39 62.5689 2.18 62.8689 2.05C63.1689 1.92 63.4989 1.85 63.8589 1.85C64.2589 1.85 64.5989 1.93 64.8989 2.07C65.1989 2.22 65.4389 2.42 65.6389 2.67C65.8389 2.92 65.9889 3.21 66.0889 3.53C66.1889 3.86 66.2389 4.21 66.2389 4.57C66.2389 4.94 66.1889 5.29 66.0889 5.61C65.9889 5.94 65.8489 6.23 65.6489 6.47C65.4489 6.71 65.2089 6.9 64.9089 7.04C64.6089 7.18 64.2689 7.25 63.8789 7.25C63.7489 7.25 63.6089 7.24 63.4489 7.21C63.2889 7.19 63.1389 7.14 62.9889 7.08C62.8289 7.02 62.6889 6.94 62.5489 6.84C62.4089 6.74 62.2989 6.61 62.2089 6.45H62.1889V7.14H61.3389V0ZM65.3389 4.51C65.3389 4.27 65.2989 4.04 65.2389 3.81C65.1789 3.58 65.0789 3.37 64.9489 3.19C64.8189 3.02 64.6489 2.87 64.4489 2.76C64.2489 2.66 64.0089 2.61 63.7389 2.6C63.4489 2.6 63.2089 2.66 63.0089 2.77C62.8089 2.89 62.6389 3.04 62.5189 3.22C62.3889 3.4 62.2989 3.61 62.2389 3.84C62.1789 4.08 62.1589 4.31 62.1589 4.55C62.1589 4.81 62.1889 5.05 62.2489 5.29C62.3089 5.53 62.3989 5.73 62.5289 5.91C62.6589 6.09 62.8289 6.24 63.0389 6.35C63.2389 6.46 63.4889 6.51 63.7889 6.51C64.0789 6.51 64.3189 6.46 64.5189 6.34C64.7189 6.23 64.8689 6.08 64.9989 5.89C65.1189 5.71 65.1989 5.49 65.2589 5.25C65.3089 5.01 65.3389 4.77 65.3389 4.51Z" fill="#ABABAB" />
    <path d="M69.2666 7.82C69.1666 8.08 69.0666 8.29 68.9666 8.46C68.8666 8.64 68.7666 8.78 68.6466 8.89C68.5266 9 68.4066 9.08 68.2666 9.13C68.1266 9.18 67.9566 9.2 67.7666 9.2C67.6666 9.2 67.5666 9.2 67.4666 9.18C67.3666 9.17 67.2666 9.15 67.1766 9.11V8.33C67.2566 8.36 67.3366 8.39 67.4166 8.41C67.4966 8.44 67.5866 8.46 67.6766 8.45C67.8466 8.45 67.9866 8.41 68.0966 8.33C68.1966 8.25 68.2966 8.14 68.3766 7.98L68.7266 7.11L66.6766 1.97H67.6366L69.1466 6.2H69.1666L70.6166 1.97H71.5166L69.2666 7.82Z" fill="#ABABAB" />
    <path d="M8.16543 20.4258C7.8361 18.8178 6.41223 17.6558 4.54276 17.6558C2.04387 17.6558 0.484251 19.5736 0.484251 22.5763C0.484251 25.5789 2.03412 27.4874 4.54276 27.4874C6.43137 27.4874 7.82635 26.3928 8.14593 24.8152H8.63018C8.30085 26.6651 6.71231 27.9434 4.54276 27.9434C1.7622 27.9434 0 25.871 0 22.5777C0 19.2941 1.77268 17.2116 4.54276 17.2116C6.67331 17.2116 8.3106 18.5773 8.64968 20.4273L8.16543 20.4258Z" fill="black" />
    <path d="M10.5015 13.2H10.976V27.7871H10.5015V13.2Z" fill="black" />
    <path d="M13.1051 25.0173C13.1051 23.2443 14.3643 22.2469 16.7859 22.0533L20.5537 21.7644V20.8255C20.5537 18.8495 19.3721 17.6579 17.4059 17.6579C15.4588 17.6579 14.2093 18.6556 13.9392 20.3991H13.4839C13.7067 18.4234 15.2082 17.2123 17.407 17.2123C19.6459 17.2123 21.0293 18.5878 21.0293 20.7959V27.7856H20.5548V25.4124H20.545C20.0413 26.9041 18.4145 27.9402 16.5544 27.9402C14.5289 27.942 13.1051 26.7312 13.1051 25.0173ZM20.5537 23.9517V22.1884L16.8635 22.4693C14.7329 22.634 13.5893 23.5165 13.5893 25.017C13.5893 26.4506 14.8583 27.4967 16.5826 27.4967C18.7716 27.4967 20.5537 25.8984 20.5537 23.9513V23.9517Z" fill="black" />
    <path d="M26.5206 17.2101C28.6129 17.2101 29.9977 18.4401 30.1819 20.3879H29.7168C29.5427 18.799 28.3901 17.6565 26.5206 17.6565C24.9028 17.6565 23.4873 18.5863 23.4873 19.952C23.4873 21.0755 24.2236 21.628 25.8024 21.9959L27.4198 22.3834C29.4832 22.8872 30.3448 23.6715 30.3448 25.086C30.3448 26.7908 28.7559 27.9431 26.5574 27.9431C24.3186 27.9431 22.7701 26.5383 22.6636 24.8437H23.1482C23.2739 26.3062 24.6688 27.4982 26.5477 27.4982C28.3785 27.4982 29.8605 26.5485 29.8605 25.1149C29.8605 23.9232 29.1242 23.2551 27.2742 22.8193L25.6373 22.4416C23.8939 22.0252 23.0124 21.2986 23.0124 19.9618C23.0142 18.3336 24.593 17.2101 26.5206 17.2101Z" fill="black" />
    <path d="M35.2859 17.2101C37.3782 17.2101 38.7634 18.4401 38.9472 20.3879H38.4821C38.3077 18.799 37.1551 17.6565 35.2856 17.6565C33.6682 17.6565 32.2522 18.5863 32.2522 19.952C32.2522 21.0755 32.9882 21.628 34.5673 21.9959L36.1847 22.3834C38.2478 22.8872 39.1097 23.6715 39.1097 25.086C39.1097 26.7908 37.5208 27.9431 35.3228 27.9431C33.0839 27.9431 31.5355 26.5383 31.4289 24.8437H31.9132C32.0392 26.3062 33.4338 27.4982 35.313 27.4982C37.1435 27.4982 38.6255 26.5485 38.6255 25.1149C38.6255 23.9232 37.8896 23.2551 36.0396 22.8193L34.4027 22.4416C32.6592 22.0252 31.7778 21.2986 31.7778 19.9618C31.7799 18.3336 33.3587 17.2101 35.2859 17.2101Z" fill="black" />
    <path d="M42.7479 17.1098H44.721V18.8637H44.7589C45.0016 18.2896 45.4136 17.8032 45.9399 17.4694C46.4662 17.1356 47.0818 16.9702 47.7045 16.9953C49.1439 16.9953 50.1828 17.7197 50.6024 19.0067H50.6501C50.9285 18.3867 51.3857 17.864 51.9631 17.5056C52.5406 17.1473 53.2119 16.9695 53.8911 16.9953C55.931 16.9953 57.2656 18.3393 57.2656 20.4078V27.4617H55.2073V20.9036C55.2073 19.5498 54.4735 18.7683 53.1851 18.7683C51.9176 18.7683 51.0213 19.7123 51.0213 21.0372V27.4621H48.9911V20.7321C49.0095 20.4678 48.9707 20.2027 48.8773 19.9548C48.7839 19.7069 48.6381 19.4821 48.4498 19.2957C48.2616 19.1093 48.0354 18.9657 47.7866 18.8747C47.5378 18.7837 47.2724 18.7474 47.0083 18.7683C45.731 18.7683 44.8156 19.76 44.8156 21.1134V27.4621H42.7472L42.7479 17.1098Z" fill="black" />
    <path d="M58.8762 24.4973C58.8762 22.686 60.2773 21.6377 62.8322 21.4756L65.625 21.3134V20.5125C65.625 19.3306 64.8338 18.6824 63.4514 18.6824C62.3266 18.6824 61.5069 19.2638 61.326 20.1597H59.3908C59.4478 18.3296 61.183 16.9758 63.5074 16.9758C66.0352 16.9758 67.6635 18.3119 67.6635 20.3597V27.4613H65.6904V25.736H65.6427C65.3164 26.3102 64.8393 26.7842 64.2631 27.1068C63.6868 27.4294 63.0332 27.5882 62.3732 27.5661C60.3062 27.5668 58.8762 26.3466 58.8762 24.4973ZM65.625 23.5725V22.7622L63.1084 22.9337C61.6976 23.0197 60.9637 23.5436 60.9637 24.4591C60.9637 25.3456 61.7358 25.9172 62.9275 25.9172C64.4622 25.9176 65.625 24.9357 65.625 23.5725Z" fill="black" />
    <path d="M72.4213 14.7838V17.1097H74.4042V18.7398H72.4213V24.5262C72.4213 25.4221 72.8218 25.8417 73.6892 25.8417C73.925 25.8383 74.1604 25.8224 74.3944 25.7941V27.4241C74.0113 27.498 73.6218 27.5332 73.2316 27.5292C71.1632 27.5292 70.3623 26.738 70.3623 24.736V18.7416H68.9326V17.1097H70.3623V14.7838H72.4213Z" fill="black" />
    <path d="M84.757 24.4305C84.4616 26.2892 82.6408 27.5859 80.3153 27.5859C77.3127 27.5859 75.4443 25.5637 75.4443 22.3238C75.4443 19.0839 77.3318 16.9761 80.2294 16.9761C83.0699 16.9761 84.8621 18.9492 84.8621 22.0855V22.8099H77.5315V22.9337C77.5315 24.7259 78.6564 25.9082 80.3532 25.9082C81.5543 25.9082 82.4982 25.3362 82.7839 24.4305H84.757ZM77.5409 21.342H82.7933C82.7456 19.731 81.7254 18.6632 80.2192 18.6632C78.7322 18.6632 77.655 19.7487 77.5405 21.342H77.5409Z" fill="black" />
    <path d="M89.2067 28.15C90.1971 28.15 91 27.3471 91 26.3567C91 25.3663 90.1971 24.5634 89.2067 24.5634C88.2163 24.5634 87.4135 25.3663 87.4135 26.3567C87.4135 27.3471 88.2163 28.15 89.2067 28.15Z" fill="black" />
</svg>
    