<svg width="106" height="42" viewBox="0 0 106 42" fill="none" xmlns="http://www.w3.org/2000/svg">
    <path d="M1.45728 36.9506V29.2633H3.13318V36.9506H1.45728Z" fill="black" />
    <path d="M12.4965 29.2633V36.9506H10.8934L9.87333 34.3275C9.76403 34.036 9.65473 33.7445 9.54543 33.4531C9.43613 33.1616 9.36327 32.943 9.2904 32.7609C9.21754 32.5787 9.18111 32.3965 9.10824 32.2508C9.07181 32.1051 9.03537 31.9958 8.99894 31.8865C8.96251 31.8136 8.96251 31.7407 8.96251 31.7407C9.14467 32.2872 9.25397 33.3438 9.25397 34.9104V36.9506H7.6145V29.2633H9.25397L10.2741 31.85C10.7477 33.0523 11.0392 33.8903 11.1485 34.4003C10.9663 33.7445 10.8934 32.6516 10.8934 31.1943V29.2633H12.4965Z" fill="black" />
    <path d="M20.8761 30.7206H19.4916V36.9506H17.8157V30.7206H16.4313V29.2633H20.8761V30.7206Z" fill="black" />
    <path d="M28.7088 36.9506H24.8105V29.2633H28.7088V30.7206H26.4864V32.3601H28.4174V33.8174H26.4864V35.5297H28.7088V36.9506Z" fill="black" />
    <path d="M34.9026 34.2546H34.5747V36.9506H32.8988V29.2633H35.0848C35.8498 29.2633 36.4328 29.4455 36.8335 29.8098C37.2343 30.1741 37.4164 30.6478 37.4164 31.2671V32.2872C37.4164 33.0523 37.125 33.6352 36.5056 33.9631L37.5986 36.987H35.777L34.9026 34.2546ZM34.5383 32.7973H35.0848C35.522 32.7973 35.7405 32.6151 35.7405 32.2508V31.2671C35.7405 30.9028 35.522 30.7206 35.0848 30.7206H34.5383V32.7973Z" fill="black" />
    <path d="M46.5974 29.2633V36.9506H44.9944L43.9743 34.3275C43.865 34.036 43.7557 33.7445 43.6464 33.4531C43.5371 33.1616 43.4642 32.943 43.3914 32.7609C43.3185 32.5787 43.2821 32.3965 43.2092 32.2508C43.1728 32.1051 43.1363 31.9958 43.0999 31.8865C43.0635 31.8136 43.0635 31.7407 43.0635 31.7407C43.2456 32.2872 43.3549 33.3438 43.3549 34.9104V36.9506H41.7155V29.2633H43.3549L44.375 31.85C44.8487 33.0523 45.1401 33.8903 45.2494 34.4003C45.0673 33.7445 44.9944 32.6516 44.9944 31.1943V29.2633H46.5974Z" fill="black" />
    <path d="M53.9568 35.1654H52.5723L52.2444 36.9506H50.605L52.208 29.2633H54.3575L55.9606 36.9506H54.2847L53.9568 35.1654ZM53.6653 33.781C53.4467 32.5787 53.301 31.6314 53.2281 30.9392C53.1553 31.7407 53.0095 32.688 52.7909 33.781H53.6653Z" fill="black" />
    <path d="M63.8664 30.7206H62.482V36.9506H60.8061V30.7206H59.4216V29.2633H63.8664V30.7206Z" fill="black" />
    <path d="M67.8013 36.9506V29.2633H69.4772V36.9506H67.8013Z" fill="black" />
    <path d="M78.4758 35.0926C78.4758 35.7119 78.2937 36.1855 77.8929 36.5499C77.4921 36.9142 76.9092 37.0964 76.1441 37.0964C75.379 37.0964 74.7961 36.9142 74.4318 36.5499C74.031 36.1855 73.8489 35.7119 73.8489 35.0926V31.1578C73.8489 30.5385 74.031 30.0649 74.4318 29.7005C74.8326 29.3362 75.4155 29.154 76.1441 29.154C76.9092 29.154 77.4921 29.3362 77.8929 29.7005C78.2937 30.0649 78.4758 30.5385 78.4758 31.1578V35.0926ZM76.7999 31.2307C76.7999 30.8664 76.5813 30.6842 76.1441 30.6842C75.7069 30.6842 75.4883 30.8664 75.4883 31.2307V34.9833C75.4883 35.3476 75.7069 35.5297 76.1441 35.5297C76.5813 35.5297 76.7999 35.3476 76.7999 34.9833V31.2307Z" fill="black" />
    <path d="M87.6933 29.2633V36.9506H86.0902L85.0701 34.3275C84.9608 34.036 84.8515 33.7445 84.7422 33.4531C84.6329 33.1616 84.56 32.943 84.4872 32.7609C84.4143 32.5787 84.3779 32.3965 84.305 32.2508C84.2686 32.1051 84.2322 31.9958 84.1957 31.8865C84.1593 31.8136 84.1593 31.7407 84.1593 31.7407C84.3414 32.2872 84.4507 33.3438 84.4507 34.9104V36.9506H82.8113V29.2633H84.4507L85.4709 31.85C85.9445 33.0523 86.2359 33.8903 86.3452 34.4003C86.1631 33.7445 86.0902 32.6516 86.0902 31.1943V29.2633H87.6933Z" fill="black" />
    <path d="M95.0527 35.1654H93.6683L93.3404 36.9506H91.7009L93.304 29.2633H95.4535L97.0565 36.9506H95.4171L95.0527 35.1654ZM94.7977 33.781C94.5791 32.5787 94.4334 31.6314 94.3605 30.9392C94.2876 31.7407 94.1419 32.688 93.9233 33.781H94.7977Z" fill="black" />
    <path d="M104.78 36.9506H101.028V29.2633H102.704V35.4933H104.744V36.9506H104.78Z" fill="black" />
    <path d="M0.838013 26.1301C35.4854 25.365 70.4972 25.365 105.145 26.1301C70.4972 26.8952 35.449 26.8952 0.838013 26.1301Z" fill="black" />
    <path d="M0 41.4318C35.1939 40.6667 70.7886 40.6667 105.946 41.4318C70.7886 42.1969 35.1939 42.1605 0 41.4318Z" fill="black" />
    <path d="M14.6823 7.65878C14.6823 9.77187 13.9537 11.1563 12.46 11.8485C14.063 12.395 14.8281 13.743 14.8281 15.929V17.8599C14.8281 19.718 14.318 21.1389 13.2979 22.1225C12.2778 23.1062 10.6019 23.5798 8.34307 23.5798H0.801514V3.43259C0.801514 1.72026 2.18595 0.335819 3.89829 0.335819H8.19734C10.4926 0.335819 12.1321 0.809443 13.1522 1.79312C14.1723 2.77681 14.6823 4.19768 14.6823 6.05574V7.65878ZM5.75635 4.70774V9.73544H7.68728C9.03529 9.73544 9.69108 9.18895 9.69108 8.05954V6.38364C9.69108 5.83715 9.54535 5.39996 9.29032 5.10849C9.03529 4.81703 8.56167 4.6713 7.86944 4.6713H5.75635V4.70774ZM9.90967 15.7833C9.90967 14.6538 9.25389 14.1074 7.90588 14.1074H5.79278V19.2444H8.12447C8.78026 19.2444 9.25389 19.0986 9.54535 18.8072C9.83681 18.5157 9.94611 18.1149 9.94611 17.532V15.7833H9.90967Z" fill="#DC3027" />
    <path d="M17.5605 11.5571H19.5643V13.7066H17.5605V11.5571Z" fill="black" />
    <path d="M19.9651 11.5571H21.9689V13.7066H19.9651V11.5571Z" fill="black" />
    <path d="M22.3695 11.5571H24.4097V13.7066H22.4059V11.5571H22.3695Z" fill="black" />
    <path d="M17.5605 13.9981H19.5643V16.1476H17.5605V13.9981Z" fill="black" />
    <path d="M19.9651 13.9981H21.9689V16.1476H19.9651V13.9981Z" fill="black" />
    <path d="M22.3695 13.9981H24.4097V16.1476H22.4059V13.9981H22.3695Z" fill="black" />
    <path d="M24.7742 13.9981H26.778V16.1476H24.7742V13.9981Z" fill="black" />
    <path d="M27.1787 13.9981H29.1825V16.1476H27.1787V13.9981Z" fill="black" />
    <path d="M34.3923 12.4315C32.2792 11.0834 31.2226 9.15252 31.2226 6.71153V5.94645C31.2226 4.08838 31.8056 2.63108 32.935 1.57453C34.0644 0.517984 35.7767 0.00792694 38.0355 0.00792694C40.3308 0.00792694 42.0431 0.517984 43.1725 1.57453C44.302 2.63108 44.8849 4.08838 44.8849 5.94645V6.20147C44.8849 7.07586 44.1927 7.76808 43.3183 7.76808H41.3873C40.513 7.76808 39.8207 7.07586 39.8207 6.20147V6.16504C39.8207 5.61855 39.675 5.21779 39.42 4.96277C39.165 4.70774 38.6913 4.56201 38.072 4.56201C37.4162 4.56201 36.979 4.70774 36.724 4.96277C36.4689 5.21779 36.3596 5.61855 36.3596 6.20147V6.6751C36.3596 7.54948 36.9061 8.351 38.0355 9.04322L42.116 11.6664C43.1725 12.3586 43.9376 13.1601 44.4113 14.0345C44.8485 14.9089 45.067 16.0019 45.067 17.3134V18.0421C45.067 19.8637 44.4841 21.321 43.3183 22.3776C42.1524 23.4341 40.4037 23.9806 38.1084 23.9806C35.8132 23.9806 34.0644 23.4341 32.8985 22.3776C31.7327 21.321 31.1498 19.8637 31.1498 18.0421V17.8235C31.1498 16.9491 31.842 16.2569 32.7164 16.2569H34.6109C35.4853 16.2569 36.1775 16.9491 36.1775 17.8235C36.1775 18.88 36.7968 19.4265 38.0355 19.4265C39.2743 19.4265 39.93 18.88 39.93 17.8235V17.3499C39.93 16.8398 39.8207 16.439 39.6386 16.1112C39.42 15.7833 39.0192 15.4189 38.4363 15.0546L34.3923 12.4315Z" fill="black" />
    <path d="M51.6978 18.2242C51.6978 19.1351 52.2443 19.5723 53.3373 19.5723C54.4303 19.5723 54.9768 19.1351 54.9768 18.2242V18.1514C54.9768 17.3499 55.6326 16.6576 56.4705 16.6576H58.365C59.1665 16.6576 59.8588 17.3134 59.8588 18.1514C59.8588 20.0459 59.2758 21.4668 58.11 22.4504C56.9441 23.4341 55.3775 23.9442 53.4102 23.9442C51.4428 23.9442 49.8762 23.4341 48.6739 22.4504C47.5081 21.4668 46.9252 20.0094 46.9252 18.1514V9.26182C46.9252 7.36732 47.5081 5.94645 48.6739 4.96277C49.8398 3.97909 51.4064 3.46903 53.4102 3.46903C55.3775 3.46903 56.9441 3.97909 58.11 4.96277C59.2758 5.94645 59.8588 7.40376 59.8588 9.26182V13.6702C59.8588 14.4717 59.203 15.1639 58.365 15.1639H53.1916C52.3901 15.1639 51.6978 15.8197 51.6978 16.6576V18.2242ZM55.0496 9.18896C55.0496 8.27814 54.5032 7.84095 53.3737 7.84095C52.2808 7.84095 51.7343 8.27814 51.7343 9.18896V9.84474C51.7343 10.6463 52.3901 11.3385 53.228 11.3385H53.5923C54.3939 11.3385 55.0861 10.6827 55.0861 9.84474V9.18896H55.0496Z" fill="black" />
    <path d="M67.2546 10.2091C67.4732 11.302 67.6189 12.5043 67.8011 13.7795C67.9468 15.0546 68.0561 16.0383 68.1289 16.7669L68.2018 17.8599C68.4568 15.2003 68.7847 12.6501 69.2584 10.2091L70.0599 5.72785C70.242 4.59844 71.2257 3.79692 72.3551 3.79692C73.8489 3.79692 74.9418 5.14493 74.6504 6.60223L71.6993 20.811C71.3715 22.414 69.9506 23.5798 68.2747 23.5798H68.1654C66.5259 23.5798 65.0686 22.414 64.7407 20.811L61.7897 6.60223C61.4982 5.14493 62.5912 3.79692 64.0849 3.79692H64.1578C65.2872 3.79692 66.2709 4.59844 66.453 5.72785L67.2546 10.2091Z" fill="black" />
    <path d="M81.3906 18.2242C81.3906 19.1351 81.9371 19.5723 83.0301 19.5723C84.123 19.5723 84.6695 19.1351 84.6695 18.2242V18.1514C84.6695 17.3499 85.3253 16.6576 86.1633 16.6576H88.0578C88.8593 16.6576 89.5515 17.3134 89.5515 18.1514C89.5515 20.0459 88.9686 21.4668 87.8027 22.4504C86.6369 23.4341 85.0703 23.9442 83.1029 23.9442C81.1356 23.9442 79.569 23.4341 78.3667 22.4504C77.2008 21.4668 76.6179 20.0094 76.6179 18.1514V9.26182C76.6179 7.36732 77.2008 5.94645 78.3667 4.96277C79.5325 3.97909 81.0991 3.46903 83.1029 3.46903C85.0703 3.46903 86.6369 3.97909 87.8027 4.96277C88.9686 5.94645 89.5515 7.40376 89.5515 9.26182V13.6702C89.5515 14.4717 88.8957 15.1639 88.0578 15.1639H82.8843C82.0828 15.1639 81.3906 15.8197 81.3906 16.6576V18.2242ZM84.706 9.18896C84.706 8.27814 84.1595 7.84095 83.0301 7.84095C81.9371 7.84095 81.3906 8.27814 81.3906 9.18896V9.84474C81.3906 10.6463 82.0464 11.3385 82.8843 11.3385H83.2487C84.0502 11.3385 84.7424 10.6827 84.7424 9.84474V9.18896H84.706Z" fill="black" />
    <path d="M92.2109 23.1062V4.30697C92.2109 4.01551 92.4295 3.79692 92.721 3.79692H96.3643C96.6557 3.79692 96.8743 4.01551 96.8743 4.30697C96.8743 4.74417 97.3844 4.96276 97.7123 4.6713C97.8944 4.52557 98.0766 4.37984 98.2588 4.27054C98.9145 3.83335 99.7525 3.61475 100.663 3.61475C102.084 3.61475 103.177 4.01551 103.942 4.85346C104.744 5.69141 105.108 6.78439 105.108 8.09597V23.0698C105.108 23.3612 104.889 23.5798 104.598 23.5798H100.627C100.335 23.5798 100.117 23.3612 100.117 23.0698V9.40754C100.117 8.93392 99.9711 8.56959 99.7161 8.31456C99.461 8.05954 99.0603 7.91381 98.6231 7.91381C98.1859 7.91381 97.7851 8.05954 97.5301 8.31456C97.2751 8.56959 97.1293 8.93392 97.1293 9.40754V23.1062C97.1293 23.3977 96.9107 23.6163 96.6193 23.6163H92.6846C92.4295 23.6163 92.2109 23.3977 92.2109 23.1062Z" fill="black" />
    <path d="M19.1999 13.1237C19.1999 13.2694 19.1635 13.4151 19.0542 13.488C18.9449 13.5973 18.7991 13.6337 18.617 13.6337C18.4348 13.6337 18.2891 13.5973 18.1798 13.488C18.0705 13.3787 18.0341 13.2694 18.0341 13.1237V12.1036C18.0341 11.9578 18.0705 11.8121 18.1798 11.7392C18.2891 11.6299 18.4348 11.5935 18.617 11.5935C18.7991 11.5935 18.9449 11.6299 19.0542 11.7392C19.1635 11.8485 19.1999 11.9578 19.1999 12.1036V13.1237ZM18.7627 12.14C18.7627 12.0307 18.6898 11.9943 18.5805 11.9943C18.4712 11.9943 18.3984 12.0307 18.3984 12.14V13.1237C18.3984 13.233 18.4712 13.2694 18.5805 13.2694C18.6898 13.2694 18.7627 13.233 18.7627 13.1237V12.14Z" fill="white" />
    <path d="M21.4953 13.5973H20.4752V11.5935H21.4953V11.9578H20.9124V12.395H21.4225V12.7594H20.9124V13.1965H21.4953V13.5973Z" fill="white" />
    <path d="M21.4952 16.0747H20.5115V14.1073H21.4952V14.4717H20.9122V14.8724H21.4223V15.2368H20.9122V15.674H21.4952V16.0747Z" fill="white" />
    <path d="M24.0091 16.0383H23.0619V14.0709H23.4991V15.674H24.0091V16.0383Z" fill="white" />
    <path d="M26.3773 14.4717H26.0129V16.0747H25.5758V14.4717H25.2114V14.1073H26.3408V14.4717H26.3773Z" fill="white" />
    <path d="M27.9074 15.1275C27.7253 15.0182 27.6524 14.836 27.6524 14.6538V14.581C27.6524 14.4352 27.6888 14.2895 27.7981 14.2167C27.9074 14.1438 28.0532 14.0709 28.2353 14.0709C28.4175 14.0709 28.5632 14.1074 28.6725 14.2167C28.7818 14.2895 28.8182 14.4352 28.8182 14.581V14.7267H28.3811V14.581C28.3811 14.5445 28.3811 14.5081 28.3446 14.4717C28.3082 14.4352 28.2718 14.4352 28.2353 14.4352C28.1625 14.4352 28.126 14.4352 28.126 14.4717C28.0896 14.5081 28.0532 14.5445 28.0532 14.581V14.6174C28.0532 14.6903 28.0896 14.7631 28.1989 14.836L28.5268 15.0546C28.5996 15.1275 28.6725 15.1639 28.7089 15.2368C28.7454 15.3096 28.7818 15.4189 28.7818 15.5282V15.6011C28.7818 15.7468 28.7454 15.8926 28.6361 15.9654C28.5268 16.0383 28.3811 16.1112 28.1989 16.1112C28.0167 16.1112 27.871 16.0747 27.7617 15.9654C27.6524 15.8926 27.616 15.7468 27.616 15.6011V15.4554H28.0532V15.6011C28.0532 15.674 28.0896 15.7468 28.1989 15.7468C28.3082 15.7468 28.3446 15.7104 28.3446 15.6011V15.5647C28.3446 15.5282 28.3446 15.4918 28.3082 15.4554C28.3082 15.4189 28.2718 15.3825 28.1989 15.3825L27.9074 15.1275Z" fill="white" />
    <path d="M23.9726 11.9943H23.6083V13.6337H23.1711V11.9943H22.8068V11.6299H23.9726V11.9943Z" fill="white" />
    <path d="M18.3621 16.0747V14.1073H18.7993V16.0747H18.3621Z" fill="white" />
</svg>
    