<svg xmlns="http://www.w3.org/2000/svg" width="87" height="87" viewBox="0 0 87 87"><defs><style>.a{fill:rgba(241,241,241,0.3);}.b{fill:#e2e2e2;}</style></defs><g transform="translate(-330.653 -53.653)"><rect class="a" width="87" height="87" rx="7" transform="translate(330.653 53.653)"/><g transform="translate(357.976 78.128)"><path class="b" d="M96.023,17.983a8.7,8.7,0,0,0,6.358-2.634,8.7,8.7,0,0,0,2.634-6.357,8.7,8.7,0,0,0-2.634-6.357,8.989,8.989,0,0,0-12.715,0,8.7,8.7,0,0,0-2.634,6.357,8.7,8.7,0,0,0,2.635,6.358A8.7,8.7,0,0,0,96.023,17.983Zm0,0" transform="translate(-80.686 0)"/><path class="b" d="M31.07,257.99a22.209,22.209,0,0,0-.3-2.359,18.584,18.584,0,0,0-.58-2.372,11.713,11.713,0,0,0-.975-2.212,8.346,8.346,0,0,0-1.47-1.916,6.482,6.482,0,0,0-2.112-1.327,7.3,7.3,0,0,0-2.7-.488,2.736,2.736,0,0,0-1.461.62c-.438.286-.95.616-1.522.981a8.722,8.722,0,0,1-1.97.868,7.649,7.649,0,0,1-4.819,0,8.7,8.7,0,0,1-1.968-.868c-.567-.362-1.079-.692-1.524-.982a2.733,2.733,0,0,0-1.461-.62,7.29,7.29,0,0,0-2.7.489A6.476,6.476,0,0,0,3.4,249.132a8.349,8.349,0,0,0-1.47,1.916,11.739,11.739,0,0,0-.975,2.212,18.634,18.634,0,0,0-.58,2.371,22.131,22.131,0,0,0-.3,2.36c-.05.714-.075,1.456-.075,2.2a6.2,6.2,0,0,0,1.841,4.69,6.628,6.628,0,0,0,4.744,1.731H24.561a6.626,6.626,0,0,0,4.744-1.731,6.2,6.2,0,0,0,1.841-4.69c0-.752-.026-1.494-.075-2.205Zm0,0" transform="translate(0 -229.283)"/></g></g></svg>